<svg viewBox="0 0 32 32" xmlns="http://www.w3.org/2000/svg">
    <title>Car</title>
    <path transform="translate(7.0, 9.0)" d="M17.6127542,5.73924541 C18.4204047,6.35924916 18.9532528,7.3194218 18.9970739,8.40553882 C18.999015,8.43677655 19,8.46827324 19,8.5 L19,13 C19,13.8284271 18.3284271,14.5 17.5,14.5 C16.6715729,14.5 16,13.8284271 16,13 L16,12.0519592 C15.8231795,12.0791272 15.6420491,12.0932203 15.4576271,12.0932203 L3.54237288,12.0932203 C3.35795089,12.0932203 3.17682053,12.0791272 3,12.0519592 L3,13 C3,13.8284271 2.32842712,14.5 1.5,14.5 C0.67157288,14.5 0,13.8284271 0,13 L0,8.5 C0,8.46827324 0.000985,8.43677655 0.00292609,8.40553882 C0.0474017,7.303201 0.59562021,6.33059752 1.42361491,5.71169508 C1.50341157,5.60068726 1.59434279,5.46633886 1.65764617,5.33050847 L3.60872533,1.1440678 C3.77450245,0.78835897 4.19497416,0.5 4.5478752,0.5 L14.4521248,0.5 C14.8050258,0.5 15.2254976,0.78835897 15.3912747,1.1440678 L17.3423538,5.33050847 C17.4403579,5.54079635 17.5406293,5.6412421 17.6127542,5.73924541 Z M7.24576271,7.90677966 C6.80112668,7.90677966 6.44067797,8.26722838 6.44067797,8.71186441 C6.44067797,9.1565004 6.80112668,9.5169492 7.24576271,9.5169492 L11.7542373,9.5169492 C12.1988733,9.5169492 12.559322,9.1565004 12.559322,8.71186441 C12.559322,8.26722838 12.1988733,7.90677966 11.7542373,7.90677966 L7.24576271,7.90677966 Z M3.05932203,9.8389831 C3.68181247,9.8389831 4.18644068,9.3343548 4.18644068,8.71186441 C4.18644068,8.08937397 3.68181247,7.58474576 3.05932203,7.58474576 C2.4368316,7.58474576 1.93220339,8.08937397 1.93220339,8.71186441 C1.93220339,9.3343548 2.4368316,9.8389831 3.05932203,9.8389831 Z M15.940678,9.8389831 C16.5631684,9.8389831 17.0677966,9.3343548 17.0677966,8.71186441 C17.0677966,8.08937397 16.5631684,7.58474576 15.940678,7.58474576 C15.3181875,7.58474576 14.8135593,8.08937397 14.8135593,8.71186441 C14.8135593,9.3343548 15.3181875,9.8389831 15.940678,9.8389831 Z M5.23124447,1.46610169 C4.92681586,1.46610169 4.58630343,1.65268691 4.4720724,1.88285145 L3.24041463,4.59172483 C3.14516538,4.82188936 2.99435425,5.04084778 3.1598786,5.00847458 L15.8395153,5.00847458 C16.0004883,5.00847458 15.8545793,4.82188936 15.759765,4.59172483 L14.5334256,1.88285145 C14.4196633,1.65268691 14.0795328,1.46610169 13.7751042,1.46610169 L5.23124447,1.46610169 Z" id="Shape"></path>
</svg>
