<svg viewBox="0 0 21 17" xmlns="http://www.w3.org/2000/svg">
    <title>Car</title>
    <path d="M18.6127542,6.73924541 C19.4204047,7.35924916 19.9532528,8.3194218 19.9970739,9.40553882 C19.999015,9.43677655 20,9.46827324 20,9.5 L20,14 C20,14.8284271 19.3284271,15.5 18.5,15.5 C17.6715729,15.5 17,14.8284271 17,14 L17,13.0519592 C16.8231795,13.0791272 16.6420491,13.0932203 16.4576271,13.0932203 L4.54237288,13.0932203 C4.35795089,13.0932203 4.17682053,13.0791272 4,13.0519592 L4,14 C4,14.8284271 3.32842712,15.5 2.5,15.5 C1.67157288,15.5 1,14.8284271 1,14 L1,9.5 C1,9.46827324 1.000985,9.43677655 1.00292609,9.40553882 C1.0474017,8.303201 1.59562021,7.33059752 2.42361491,6.71169508 C2.50341157,6.60068726 2.59434279,6.46633886 2.65764617,6.33050847 L4.60872533,2.1440678 C4.77450245,1.78835897 5.19497416,1.5 5.5478752,1.5 L15.4521248,1.5 C15.8050258,1.5 16.2254976,1.78835897 16.3912747,2.1440678 L18.3423538,6.33050847 C18.4403579,6.54079635 18.5406293,6.6412421 18.6127542,6.73924541 Z M8.24576271,8.90677966 C7.80112668,8.90677966 7.44067797,9.26722838 7.44067797,9.71186441 C7.44067797,10.1565004 7.80112668,10.5169492 8.24576271,10.5169492 L12.7542373,10.5169492 C13.1988733,10.5169492 13.559322,10.1565004 13.559322,9.71186441 C13.559322,9.26722838 13.1988733,8.90677966 12.7542373,8.90677966 L8.24576271,8.90677966 Z M4.05932203,10.8389831 C4.68181247,10.8389831 5.18644068,10.3343548 5.18644068,9.71186441 C5.18644068,9.08937397 4.68181247,8.58474576 4.05932203,8.58474576 C3.4368316,8.58474576 2.93220339,9.08937397 2.93220339,9.71186441 C2.93220339,10.3343548 3.4368316,10.8389831 4.05932203,10.8389831 Z M16.940678,10.8389831 C17.5631684,10.8389831 18.0677966,10.3343548 18.0677966,9.71186441 C18.0677966,9.08937397 17.5631684,8.58474576 16.940678,8.58474576 C16.3181875,8.58474576 15.8135593,9.08937397 15.8135593,9.71186441 C15.8135593,10.3343548 16.3181875,10.8389831 16.940678,10.8389831 Z M6.23124447,2.46610169 C5.92681586,2.46610169 5.58630343,2.65268691 5.4720724,2.88285145 L4.24041463,5.59172483 C4.14516538,5.82188936 3.99435425,6.04084778 4.1598786,6.00847458 L16.8395153,6.00847458 C17.0004883,6.00847458 16.8545793,5.82188936 16.759765,5.59172483 L15.5334256,2.88285145 C15.4196633,2.65268691 15.0795328,2.46610169 14.7751042,2.46610169 L6.23124447,2.46610169 Z"></path>
</svg>
