<svg viewBox="0 0 32 32" xmlns="http://www.w3.org/2000/svg">
    <title>Car</title>
    <path d="M23.25,24 L8.75,24 L8.75,26 C8.75,26.5522847 8.30228475,27 7.75,27 L5.75,27 C5.19771525,27 4.75,26.5522847 4.75,26 L4.75,24 C4.75,23.8650128 4.77674613,23.7362725 4.82522804,23.6187894 C4.32512797,23.2552346 4,22.6655861 4,22 L4,16 C4,14.8954305 4.8954305,14 6,14 L26,14 C27.1045695,14 28,14.8954305 28,16 L28,22 C28,22.6655861 27.674872,23.2552346 27.174772,23.6187894 C27.2232539,23.7362725 27.25,23.8650128 27.25,24 L27.25,26 C27.25,26.5522847 26.8022847,27 26.25,27 L24.25,27 C23.6977153,27 23.25,26.5522847 23.25,26 L23.25,24 Z M8,21 C9.1045695,21 10,20.1045695 10,19 C10,17.8954305 9.1045695,17 8,17 C6.8954305,17 6,17.8954305 6,19 C6,20.1045695 6.8954305,21 8,21 Z M24,21 C25.1045695,21 26,20.1045695 26,19 C26,17.8954305 25.1045695,17 24,17 C22.8954305,17 22,17.8954305 22,19 C22,20.1045695 22.8954305,21 24,21 Z"></path>
    <path d="M24.5,14.5 C24.1131185,12.3333333 23.7797852,10.6666667 23.5,9.5 C23.2202148,8.33333333 22.5535482,7.75 21.5,7.75 C15.2765299,7.75 11.6098633,7.75 10.5,7.75 C9.39013672,7.75 8.72347005,8.33333333 8.5,9.5 L7.5,14.5 L5.5,14.5 L7,8 C7.33333333,6.66666667 8.33333333,6 10,6 C11.6666667,6 15.6666667,6 22,6 C23.6666667,6 24.6666667,6.66666667 25,8 C25.3333333,9.33333333 25.8333333,11.5 26.5,14.5 L24.5,14.5 Z"></path>
</svg>
