<?xml version="1.0" encoding="UTF-8"?>
<svg width="180px" height="60px" viewBox="0 0 180 60" version="1.1" xmlns="http://www.w3.org/2000/svg" xmlns:xlink="http://www.w3.org/1999/xlink">
    <title>Download on the App Store</title>
    <path fill="#000000" d="M12.4298349,58.9969675 C11.9699135,58.9969675 11.5211022,58.9910541 11.0647885,58.9807435 C10.1194979,58.9683719 9.17641655,58.8857119 8.2432791,58.7334414 C7.37317552,58.5829194 6.53027904,58.3029211 5.7423923,57.9026822 C4.96173006,57.5057596 4.24970335,56.9853034 3.63358895,56.3612517 C3.00855644,55.744551 2.48818831,55.0292834 2.09310584,54.2437938 C1.6936699,53.453199 1.41723645,52.6057768 1.27343496,51.7310467 C1.11814183,50.7911394 1.03412182,49.8407448 1.02209941,48.8880581 C1.01252904,48.5682788 1,47.5035606 1,47.5035606 L1,12.4770919 C1,12.4770919 1.01334418,11.4287342 1.02217489,11.1207362 C1.03368625,10.1695587 1.11721769,9.22063891 1.2720462,8.28219021 C1.41611313,7.40506391 1.69276058,6.55519801 2.09241146,5.76201349 C2.48604191,4.97706638 3.00352105,4.26126469 3.62478843,3.642357 C4.24535753,3.01756881 4.95966188,2.49443268 5.74165264,2.09202604 C6.52772858,1.69307301 7.3690321,1.41504987 8.23737687,1.26727125 C9.17357889,1.11347109 10.1199342,1.03031927 11.068502,1.01851354 L12.4305746,1 L167.562044,1 L168.940389,1.01925651 C169.880329,1.03047562 170.818087,1.11288561 171.745686,1.26578532 C172.622822,1.4154176 173.472893,1.69538066 174.267948,2.09646868 C175.834559,2.90743467 177.10928,4.19045935 177.913445,5.76571317 C178.306717,6.55342201 178.579098,7.39635553 178.721342,8.26590557 C178.878014,9.21205427 178.965699,10.168431 178.983697,11.1274077 C178.988075,11.5568127 178.988075,12.0180592 178.988075,12.4770919 C179,13.0456896 179,13.5868885 179,14.1325301 L179,45.8658475 C179,46.416705 179,46.9542194 178.988075,47.4961309 C178.988075,47.9892189 178.988075,48.4409129 178.982188,48.9057984 C178.964579,49.8476626 178.878356,50.7869687 178.72421,51.7161874 C178.583356,52.5972275 178.308428,53.4512643 177.909068,54.2483426 C177.511193,55.0253065 176.993813,55.7343783 176.375997,56.3494249 C175.759328,56.9768302 175.046045,57.5003314 174.26357,57.8998013 C173.470718,58.303117 172.621898,58.5841508 171.745686,58.7334414 C170.812619,58.8865245 169.869448,58.9691898 168.924086,58.9807435 C168.481947,58.9910541 168.018976,58.9969675 167.569441,58.9969675 L165.933118,59 L12.4298349,58.9969675 Z"></path>
    <path fill="#FFFFFF" d="M61.9805788,40.0697014 L54.3703244,40.0697014 L52.5427315,45.4661265 L49.3193303,45.4661265 L56.5276404,25.5007445 L59.8766411,25.5007445 L67.0849511,45.4661265 L63.80658,45.4661265 L61.9805788,40.0697014 Z M55.1585052,37.5795273 L61.1908867,37.5795273 L58.2171252,28.8215287 L58.1339066,28.8215287 L55.1585052,37.5795273 Z M82.6524505,38.1887303 C82.6524505,42.7121803 80.2313625,45.6184152 76.5777523,45.6184152 C74.689233,45.7172045 72.9103512,44.7280451 71.9977888,43.0716955 L71.9286544,43.0716955 L71.9286544,50.2815811 L68.9407605,50.2815811 L68.9407605,30.9097584 L71.8329273,30.9097584 L71.8329273,33.3308464 L71.8878811,33.3308464 C72.840985,31.6848807 74.6217851,30.6961472 76.5227984,30.7574537 C80.2171658,30.7574697 82.6524505,33.6778369 82.6524505,38.1887303 Z M79.581338,38.1887303 C79.581338,35.241674 78.0583386,33.3041573 75.7346015,33.3041573 C73.451686,33.3041573 71.9161298,35.2824793 71.9161298,38.1887303 C71.9161298,41.1216703 73.451686,43.08586 75.7346015,43.08586 C78.0583546,43.08586 79.581338,41.1624918 79.581338,38.1887303 Z M98.6736968,38.1887303 C98.6736968,42.7121803 96.2526089,45.6184152 92.5989986,45.6184152 C90.7104794,45.7172045 88.9315975,44.7280451 88.0190352,43.0716955 L87.9499007,43.0716955 L87.9499007,50.2815811 L84.9620069,50.2815811 L84.9620069,30.9097584 L87.8541094,30.9097584 L87.8541094,33.3308464 L87.9090632,33.3308464 C88.862174,31.6848817 90.642981,30.696154 92.5439966,30.7574697 C96.2384765,30.7574697 98.6736968,33.6778369 98.6736968,38.1887303 Z M95.6025844,38.1887303 C95.6025844,35.241674 94.0795849,33.3041573 91.7558479,33.3041573 C89.4729324,33.3041573 87.9373762,35.2824793 87.9373762,38.1887303 C87.9373762,41.1216703 89.4729324,43.08586 91.7558479,43.08586 C94.079601,43.08586 95.6026005,41.1624918 95.6026005,38.1887303 L95.6025844,38.1887303 Z M109.262424,39.9032643 C109.483815,41.883162 111.407199,43.1831305 114.035513,43.1831305 C116.553952,43.1831305 118.365837,41.8830977 118.365837,40.0978858 C118.365837,38.5481972 117.273047,37.6203005 114.685538,36.9843923 L112.098029,36.3610569 C108.431862,35.4755252 106.729868,33.7609751 106.729868,30.9787642 C106.729868,27.5339721 109.731895,25.167838 113.994692,25.167838 C118.2135,25.167838 121.105651,27.5339721 121.203002,30.9787642 L118.186811,30.9787642 C118.006258,28.9863098 116.359218,27.7836278 113.952263,27.7836278 C111.545307,27.7836278 109.898283,29.0004582 109.898283,30.7715217 C109.898283,32.1830379 110.950252,33.0136158 113.523629,33.6494436 L115.723326,34.1895604 C119.819702,35.1583107 121.521695,36.8038067 121.521695,39.7241418 C121.521695,43.459395 118.546358,45.79884 113.81409,45.79884 C109.386415,45.79884 106.396962,43.5143488 106.203836,39.9031196 L109.262424,39.9032643 Z M127.970105,27.4649663 L127.970105,30.9097584 L130.738184,30.9097584 L130.738184,33.2758925 L127.970105,33.2758925 L127.970105,41.3006481 C127.970105,42.5473027 128.524355,43.128241 129.741169,43.128241 C130.069785,43.1225108 130.397869,43.0994339 130.724052,43.0591066 L130.724052,45.4111083 C130.17697,45.5133301 129.620908,45.559626 129.064455,45.5492807 C126.117399,45.5492807 124.968079,44.442358 124.968079,41.6193257 L124.968079,33.2758925 L122.851601,33.2758925 L122.851601,30.9097584 L124.968047,30.9097584 L124.968047,27.4649663 L127.970105,27.4649663 Z M132.341315,38.1887303 C132.341315,33.6087668 135.038732,30.7307806 139.245032,30.7307806 C143.465448,30.7307806 146.150308,33.6087025 146.150308,38.1887303 C146.150308,42.7812665 143.47958,45.6466799 139.245032,45.6466799 C135.011978,45.6466799 132.341315,42.7812505 132.341315,38.1887303 Z M143.105884,38.1887303 C143.105884,35.0469721 141.666104,33.19269 139.245016,33.19269 C136.823928,33.19269 135.385722,35.0611045 135.385722,38.1887303 C135.385722,41.3430452 136.823928,43.1832109 139.245016,43.1832109 C141.666104,43.1832109 143.10582,41.3430452 143.10582,38.1887303 L143.105884,38.1887303 Z M148.613728,30.9097584 L151.46345,30.9097584 L151.46345,33.3873437 L151.532584,33.3873437 C151.929988,31.7924097 153.391388,30.6947207 155.03389,30.7574376 C155.378218,30.7562353 155.721596,30.7936298 156.057594,30.8689209 L156.057594,33.6636885 C155.622901,33.5308592 155.169441,33.469873 154.7151,33.4831351 C153.836688,33.4474994 152.986579,33.7975757 152.387989,34.4414444 C151.789398,35.0853131 151.502128,35.9586475 151.601606,36.8321358 L151.601606,45.4660943 L148.613712,45.4660943 L148.613728,30.9097584 Z M169.833563,41.1907404 C169.431618,43.8332033 166.858226,45.6466638 163.565738,45.6466638 C159.33119,45.6466638 156.702859,42.8094991 156.702859,38.2578004 C156.702859,33.6919693 159.345322,30.7307645 163.440139,30.7307645 C167.467429,30.7307645 170,33.4972674 170,37.9108098 L170,38.934514 L159.719018,38.934514 L159.719018,39.1150674 C159.62303,40.1987603 159.99723,41.271466 160.746436,42.0603229 C161.495642,42.8491797 162.547641,43.2781555 163.634841,43.2381326 C165.084802,43.3739892 166.451833,42.5413824 166.996414,41.1907243 L169.833563,41.1907404 Z M159.733122,36.8463003 L167.010531,36.8462842 C167.064754,35.8725136 166.710289,34.9202681 166.032536,34.2189691 C165.354783,33.5176701 164.415193,33.1309038 163.440139,33.1518525 C162.457372,33.1459877 161.512977,33.5329354 160.816866,34.2266892 C160.120754,34.920443 159.730604,35.8635188 159.733122,36.8463003 Z M54.7840377,10.4726866 C56.0524883,10.381661 57.2949076,10.8642567 58.1693281,11.7876426 C59.0437485,12.7110285 59.4580013,13.9778745 59.2980662,15.2394899 C59.2980662,18.3043159 57.6416212,20.0660382 54.7840377,20.0660382 L51.3188429,20.0660382 L51.3188429,10.4726866 L54.7840377,10.4726866 Z M52.8088508,18.7093312 L54.6176006,18.7093312 C55.5241009,18.7635165 56.4067621,18.40636 57.0205022,17.7370306 C57.6342423,17.0677011 57.9137209,16.1574576 57.7813371,15.2590405 C57.9040893,14.3643517 57.620586,13.4616194 57.0083676,12.7977484 C56.3961492,12.1338774 55.5192835,11.7783408 54.6176006,11.8283807 L52.8088508,11.8283807 L52.8088508,18.7093312 Z M60.9812003,16.4429114 C60.8570592,15.1452501 61.4792957,13.8893939 62.5869456,13.2020456 C63.6945954,12.5146973 65.0961492,12.5146973 66.2037991,13.2020456 C67.3114489,13.8893939 67.9336854,15.1452501 67.8095443,16.4429114 C67.9360473,17.7419672 67.3143788,19.0002591 66.2057468,19.6890872 C65.0971149,20.3779153 63.6936298,20.3779153 62.5849978,19.6890872 C61.4763658,19.0002591 60.8546973,17.7419672 60.9812003,16.4429114 Z M66.339923,16.4429114 C66.339923,14.873608 65.6349447,13.9558885 64.3977277,13.9558885 C63.1557838,13.9558885 62.4571402,14.873608 62.4571402,16.4429275 C62.4571402,18.0248038 63.1558321,18.935449 64.3977277,18.935449 C65.6349769,18.9354329 66.3399391,18.0185013 66.3399391,16.4429114 L66.339923,16.4429114 Z M76.8862687,20.0658935 L75.4041068,20.0658935 L73.9078125,14.7338438 L73.7947697,14.7338438 L72.3047457,20.0658935 L70.8367001,20.0658935 L68.8411105,12.8261836 L70.2903129,12.8261836 L71.5872107,18.3505074 L71.6939832,18.3505074 L73.1824315,12.8261836 L74.5531262,12.8261836 L76.0415745,18.3505074 L76.1546174,18.3505074 L77.4452287,12.8261836 L78.8740124,12.8261836 L76.8862687,20.0658935 Z M80.5524518,12.8261836 L81.9278412,12.8261836 L81.9278412,13.9762751 L82.0346137,13.9762751 C82.4059056,13.1295036 83.2735074,12.6115251 84.1950648,12.6864356 C84.9086235,12.6327869 85.6078606,12.9065241 86.0953466,13.4303576 C86.5828327,13.9541911 86.8056665,14.6712752 86.7009309,15.3791415 L86.7009309,20.0658131 L85.2721472,20.0658131 L85.2721472,15.7379331 C85.2721472,14.574497 84.7665815,13.9959061 83.7099019,13.9959061 C83.2259059,13.9733636 82.7562006,14.163312 82.4239284,14.5159527 C82.0916561,14.8685933 81.9299555,15.3487561 81.9812194,15.8305572 L81.9812194,20.0658935 L80.5524357,20.0658935 L80.5524518,12.8261836 Z M88.9775761,10 L90.4063598,10 L90.4063598,20.0658774 L88.9775761,20.0658774 L88.9775761,10 Z M92.3925278,16.4429114 C92.2684821,15.1451652 92.8908167,13.8892773 93.9985488,13.2019183 C95.1062808,12.5145594 96.5079066,12.5145594 97.6156387,13.2019183 C98.7233707,13.8892773 99.3457054,15.1451652 99.2216596,16.4429114 C99.348002,17.7420137 98.7262195,19.0002701 97.6175325,19.6890678 C96.5088456,20.3778655 95.1053419,20.3778655 93.9966549,19.6890678 C92.8879679,19.0002701 92.2661855,17.7420137 92.3925278,16.4429114 Z M97.7512505,16.4429114 C97.7512505,14.873608 97.0462722,13.9558885 95.8090552,13.9558885 C94.5671113,13.9558885 93.8684677,14.873608 93.8684677,16.4429275 C93.8684677,18.0248038 94.5671596,18.935449 95.8090552,18.935449 C97.0462883,18.9354329 97.7512666,18.0185013 97.7512666,16.4429114 L97.7512505,16.4429114 Z M100.725816,18.0185013 C100.725816,16.7153172 101.696142,15.9640349 103.418522,15.8572624 L105.379576,15.7442195 L105.379576,15.1193246 C105.379576,14.3546817 104.874011,13.922913 103.897414,13.922913 C103.099812,13.922913 102.547139,14.2157375 102.388547,14.7275896 L101.005296,14.7275896 C101.151314,13.4840701 102.321037,12.6864677 103.963349,12.6864677 C105.778386,12.6864677 106.80209,13.5900387 106.80209,15.1193246 L106.80209,20.0659096 L105.426684,20.0659096 L105.426684,19.0484918 L105.313641,19.0484918 C104.846499,19.7914882 104.015769,20.2257279 103.139058,20.1851906 C102.524463,20.2491188 101.911505,20.050074 101.451721,19.6372639 C100.991936,19.2244538 100.728237,18.6364077 100.725816,18.0185013 Z M105.379576,17.3998767 L105.379576,16.7946128 L103.611648,16.9076556 C102.614633,16.9743784 102.162446,17.313523 102.162446,17.9517624 C102.162446,18.6033465 102.727676,18.9825247 103.50494,18.9825247 C103.965063,19.0291018 104.42439,18.8869505 104.77777,18.5886121 C105.13115,18.2902738 105.348324,17.8612945 105.379576,17.3998767 Z M108.67991,16.4429114 C108.67991,14.1552851 109.855919,12.7060826 111.685071,12.7060826 C112.608702,12.6635249 113.473768,13.1584354 113.905187,13.9762269 L114.011959,13.9762269 L114.011959,10 L115.440743,10 L115.440743,20.0658774 L114.071624,20.0658774 L114.071624,18.9220562 L113.958581,18.9220562 C113.494551,19.7330626 112.618827,20.2196075 111.685087,20.1851906 C109.843362,20.185271 108.67991,18.7360364 108.67991,16.4429114 Z M110.155849,16.4429114 C110.155849,17.9784676 110.879671,18.9024735 112.090215,18.9024735 C113.29444,18.9024735 114.038697,17.9651392 114.038697,16.4491978 C114.038697,14.9403307 113.286627,13.9896358 112.090215,13.9896358 C110.887469,13.9896358 110.155801,14.9199119 110.155801,16.4429114 L110.155849,16.4429114 Z M121.352155,16.4429114 C121.228014,15.1452501 121.850251,13.8893939 122.957901,13.2020456 C124.06555,12.5146973 125.467104,12.5146973 126.574754,13.2020456 C127.682404,13.8893939 128.30464,15.1452501 128.180499,16.4429114 C128.307002,17.7419672 127.685334,19.0002591 126.576702,19.6890872 C125.46807,20.3779153 124.064585,20.3779153 122.955953,19.6890872 C121.847321,19.0002591 121.225652,17.7419672 121.352155,16.4429114 Z M126.710878,16.4429114 C126.710878,14.873608 126.0059,13.9558885 124.768683,13.9558885 C123.526739,13.9558885 122.828095,14.873608 122.828095,16.4429275 C122.828095,18.0248038 123.526787,18.935449 124.768683,18.935449 C126.005916,18.9354329 126.710878,18.0185013 126.710878,16.4429114 Z M130.097581,12.8261836 L131.472987,12.8261836 L131.472987,13.9762751 L131.579759,13.9762751 C131.951051,13.1295036 132.818653,12.6115251 133.74021,12.6864356 C134.453769,12.6327869 135.153006,12.9065241 135.640492,13.4303576 C136.127978,13.9541911 136.350812,14.6712752 136.246076,15.3791415 L136.246076,20.0658131 L134.817293,20.0658131 L134.817293,15.7379331 C134.817293,14.574497 134.311727,13.9959061 133.255047,13.9959061 C132.771051,13.9733636 132.301346,14.163312 131.969074,14.5159527 C131.636801,14.8685933 131.475101,15.3487561 131.526365,15.8305572 L131.526365,20.0658935 L130.097581,20.0658935 L130.097581,12.8261836 Z M144.319515,11.0237202 L144.319515,12.8591591 L145.888047,12.8591591 L145.888047,14.0626449 L144.319515,14.0626449 L144.319515,17.7853414 C144.319515,18.5436979 144.631971,18.8757683 145.343219,18.8757683 C145.525309,18.8751855 145.707216,18.8641757 145.888047,18.8427928 L145.888047,20.032918 C145.631461,20.0788212 145.371493,20.1032422 145.110847,20.1059272 C143.521913,20.1059272 142.889156,19.5469672 142.889156,18.151159 L142.889156,14.0625806 L141.739852,14.0625806 L141.739852,12.8590948 L142.889156,12.8590948 L142.889156,11.0237202 L144.319515,11.0237202 Z M147.839664,10 L149.255891,10 L149.255891,13.9896197 L149.368934,13.9896197 C149.758061,13.1354373 150.640847,12.6167988 151.576412,12.692722 C152.285919,12.6541149 152.975691,12.9338785 153.457849,13.4558116 C153.940007,13.9777446 154.164331,14.6874846 154.069722,15.3917143 L154.069722,20.0658935 L152.639507,20.0658935 L152.639507,15.7441874 C152.639507,14.5878094 152.100902,14.0021603 151.091394,14.0021603 C150.594316,13.961393 150.104587,14.1421029 149.753132,14.4959788 C149.401677,14.8498547 149.224333,15.3408125 149.268512,15.8375992 L149.268512,20.0658613 L147.839728,20.0658613 L147.839664,10 Z M162.400727,18.1111254 C162.00008,19.4767387 160.678554,20.3590766 159.263679,20.2056255 C158.298312,20.231109 157.37054,19.8309662 156.726523,19.1113643 C156.082507,18.3917623 155.787353,17.4254499 155.919373,16.4688127 C155.790859,15.5095169 156.084907,14.5416561 156.725337,13.8159748 C157.365768,13.0902935 158.289562,12.6781985 159.257393,12.6864516 C161.271826,12.6864516 162.48708,14.0627093 162.48708,16.3361068 L162.48708,16.8346625 L157.374846,16.8346625 L157.374846,16.9147298 C157.329607,17.4519529 157.513084,17.9833356 157.880156,18.3781944 C158.247228,18.7730533 158.763834,18.9947501 159.302925,18.9887629 C160.001942,19.0726804 160.682386,18.7259444 161.025321,18.1110771 L162.400727,18.1111254 Z M157.374814,15.7779668 L161.031559,15.7779668 C161.06798,15.2866306 160.895217,14.8027613 160.555845,14.4456 C160.216473,14.0884387 159.742053,13.8912015 159.249499,13.9024942 C158.750271,13.8962221 158.269668,14.0918281 157.91671,14.4449405 C157.563752,14.7980529 157.368356,15.2787418 157.374846,15.7779668 L157.374814,15.7779668 Z M37.5796118,22.3985698 C35.2558634,23.8271864 33.8259286,26.3466109 33.7907874,29.0741588 C33.7941047,32.1600536 35.6421378,34.9449607 38.4842761,36.1470457 C37.9376697,37.9227169 37.1137359,39.6007926 36.0429944,41.1191139 C34.6050303,43.2701595 33.0973369,45.3716535 30.7043529,45.4104974 C28.3791689,45.464165 27.5977407,44.0421179 24.9308236,44.0421179 C22.2389216,44.0421179 21.4060285,45.3716695 19.1759445,45.464165 C16.8970002,45.5485733 15.1553269,43.168339 13.6650778,41.037471 C10.686493,36.6858441 8.36712912,28.7738902 11.476571,23.3903756 C12.9367179,20.7665235 15.6668272,19.1015299 18.6680315,19.0045674 C20.9490338,18.9576363 23.0672807,20.5450434 24.4696969,20.5450434 C25.8454882,20.5450434 28.4628698,18.6461134 31.1627142,18.9295002 C33.7289073,19.00979 36.1070043,20.2954243 37.5796118,22.3985698 Z M31.1908342,10.4554352 C31.3464911,12.4880398 30.7036882,14.5012658 29.3989339,16.0675757 C28.1330761,17.6420132 26.2150308,18.5488858 24.1949277,18.5280864 C24.0664576,16.5539971 24.7279682,14.6098022 26.033759,13.1237189 C27.3561403,11.6175041 29.1974598,10.6648007 31.1908342,10.4554352 Z"></path>
</svg>
