<?xml version="1.0" encoding="UTF-8"?>
<svg width="124px" height="44px" viewBox="0 0 124 44" version="1.1" xmlns="http://www.w3.org/2000/svg">
    <g transform="translate(3.000000, 3.000000)">
        <path d="M7.57709134,37.4980132 L109.336769,37.5000008 L110.422438,37.4980132 C110.709038,37.4980132 111.011421,37.4943734 111.314423,37.4874201 C111.916336,37.4801499 112.516854,37.4281321 113.107934,37.3322997 C113.639574,37.2427767 114.154557,37.0742652 114.634888,36.8327827 C115.105786,36.595189 115.534977,36.2838746 115.909823,35.9070019 C116.281851,35.5409712 116.593345,35.1190564 116.830832,34.6607602 C117.072264,34.1845209 117.238452,33.6743084 117.324071,33.1450798 C117.42219,32.5605165 117.477073,31.9696123 117.488233,31.3801514 C117.489516,31.2714492 117.489516,31.2714492 117.490406,31.1630368 C117.491819,30.9726885 117.492095,30.8214152 117.492218,30.451852 C117.494077,30.3683618 117.495546,30.2825521 117.496676,30.1930179 C117.499447,29.9734649 117.5,29.7974613 117.5,29.3948656 L117.5,8.60407142 C117.5,8.52931825 117.5,8.52931825 117.499979,8.45476544 C117.499808,8.05820011 117.49799,7.80260978 117.492095,7.51947401 C117.492095,7.49014964 117.492095,7.49014964 117.492094,7.46083273 C117.492078,7.07066753 117.491495,6.86096967 117.489283,6.64469147 C117.477817,6.04090723 117.421956,5.43875778 117.321983,4.84206936 C117.235972,4.32242051 117.071258,3.8186406 116.835463,3.35182837 C116.350313,2.41259254 115.58103,1.64734921 114.639923,1.16584325 C114.157032,0.925082662 113.640671,0.757012053 113.110567,0.667629732 C112.520278,0.571467574 111.92352,0.51963759 111.324366,0.512568679 L110.417535,0.5 L7.58428796,0.499954893 L6.68077462,0.512091741 C6.07673324,0.519521674 5.47410273,0.571853056 4.88074424,0.668182969 C4.35420072,0.756744939 3.84409081,0.923349009 3.37000253,1.16113937 C2.89808614,1.40114542 2.46708218,1.71311071 2.09081988,2.0874932 C1.71746614,2.45508129 1.40654067,2.88014082 1.16963388,3.34703765 C0.927957945,3.82108363 0.760683463,4.32894716 0.673520737,4.85341828 C0.575086717,5.44307386 0.521981113,6.0393034 0.51448994,6.64532626 C0.512286384,6.7329287 0.512286384,6.7329287 0.509800268,6.86675223 C0.50821334,6.9585229 0.50821334,6.9585229 0.506671501,7.0554225 C0.50390971,7.23181792 0.501472429,7.40836757 0.5,7.51947401 L0.499964562,30.4618971 C0.501396219,30.5821373 0.503742431,30.762768 0.506476924,30.9432184 C0.508579833,31.0783605 0.508579833,31.0783605 0.510780346,31.2001732 C0.51267807,31.2949771 0.51267807,31.2949771 0.514609418,31.3685508 C0.522253839,31.9672339 0.575677991,32.5644787 0.674488966,33.1555398 C0.761382523,33.6779262 0.928433034,34.1840429 1.17025466,34.6570821 C1.40735754,35.1229719 1.71970114,35.5472826 2.09959999,35.9177959 C2.47020852,36.288791 2.89858676,36.5982541 3.36817332,36.8342215 C3.84630333,37.0742679 4.35787041,37.2422168 4.88133263,37.3317363 C5.47573594,37.427598 6.07647827,37.4796369 6.68332603,37.4875083 C6.99614578,37.4944939 7.28790912,37.4980132 7.57708158,37.4980132 Z" stroke-opacity="0.2" stroke="#FFFFFF" fill="#000000"></path>
        <path d="M48.34719,19.34765 C50.645,19.34766 52.15969,21.16406 52.15969,23.96973 C52.15969,26.78321 50.65383,28.59082 48.38137,28.59082 C47.2067553,28.6522646 46.1003324,28.0370307 45.53274,27.00682 L45.48974,27.00682 L45.48974,31.4912 L43.63134,31.4912 L43.63134,19.44238 L45.4302,19.44238 L45.4302,20.94824 L45.46438,20.94824 C46.0571883,19.9244879 47.1648043,19.3095188 48.34719,19.34765 Z M58.312,19.34766 C60.60988,19.34766 62.12453,21.16406 62.12453,23.96973 C62.12453,26.78321 60.61867,28.59082 58.34621,28.59082 C57.1715953,28.6522646 56.0651724,28.0370307 55.49758,27.00682 L55.45458,27.00682 L55.45458,31.4912 L53.59618,31.4912 L53.59618,19.44238 L55.395,19.44238 L55.395,20.94824 L55.42918,20.94824 C56.0219926,19.9244885 57.1296128,19.3095231 58.312,19.34766 Z M71.65383,15.87104 C74.27783,15.87104 76.07668,17.34272 76.13723,19.4853 L74.26123,19.4853 C74.14893,18.24604 73.12451,17.498 71.62744,17.498 C70.13037,17.498 69.10596,18.25484 69.10596,19.3564 C69.10596,20.23433 69.76026,20.75093 71.36084,21.1464 L72.729,21.48234 C75.27685,22.08488 76.33545,23.10834 76.33545,24.92472 C76.33545,27.24796 74.48486,28.70304 71.5415,28.70304 C68.78759,28.70304 66.92822,27.28214 66.8081,25.03604 L68.71047,25.03613 C68.84817,26.26758 70.04447,27.07613 71.67922,27.07613 C73.24563,27.07613 74.37258,26.26754 74.37258,25.15718 C74.37258,24.19331 73.69289,23.61618 72.08352,23.22066 L70.47415,22.83296 C68.19388,22.28218 67.13528,21.21577 67.13528,19.4853 C67.13528,17.34272 69.00247,15.87104 71.65383,15.87104 Z M87.35895,19.33106 C89.98395,19.33106 91.65387,21.12106 91.65387,23.96973 C91.65387,26.82618 89.99274,28.6084 87.35895,28.6084 C84.72609,28.6084 83.065,26.82617 83.065,23.96973 C83.065,21.1211 84.74273,19.33106 87.35895,19.33106 Z M102.40774,19.33105 C104.91262,19.33105 106.48782,21.05175 106.48782,23.79687 L106.48782,24.43359 L100.09329,24.43359 L100.09329,24.54589 C100.033587,25.2199216 100.266332,25.8871194 100.73232,26.3777699 C101.198308,26.8684204 101.852627,27.1352333 102.52884,27.11034 C103.430682,27.1948396 104.280943,26.6769777 104.61966,25.8369 L106.3843,25.83691 C106.1343,27.48046 104.53371,28.60839 102.48586,28.60839 C99.85207,28.60839 98.21731,26.84374 98.21731,24.01269 C98.21731,21.17285 99.86086,19.33105 102.40774,19.33105 Z M80.34621,17.2998 L80.34621,19.44238 L82.06789,19.44238 L82.06789,20.91406 L80.34621,20.91406 L80.34621,25.90527 C80.34621,26.68066 80.69094,27.04199 81.44777,27.04199 C81.6521614,27.0384259 81.8562221,27.0240726 82.0591,26.99899 L82.0591,28.46188 C81.7188283,28.5254596 81.3729708,28.5542545 81.02687,28.54782 C79.19387,28.54782 78.47902,27.85934 78.47902,26.10348 L78.47902,20.91406 L77.16262,20.91406 L77.16262,19.44238 L78.479,19.44238 L78.479,17.2998 L80.34621,17.2998 Z M37.99367,16.0781 L42.47707,28.4961 L40.438,28.4961 L39.30227,25.13965 L34.56887,25.13965 L33.43215,28.4961 L31.42727,28.4961 L35.91067,16.0781 L37.99367,16.0781 Z M97.17925,19.34764 C97.393414,19.3468922 97.6069872,19.3701507 97.81597,19.41698 L97.81597,21.15526 C97.545601,21.0726433 97.2635596,21.0347113 96.98097,21.04296 C96.4346182,21.0207954 95.9058709,21.2385347 95.5335615,21.639006 C95.161252,22.0394772 94.9825766,22.5826707 95.04445,23.12596 L95.04445,28.49608 L93.18605,28.49608 L93.18605,19.44238 L94.95852,19.44238 L94.95852,20.98338 L95.00152,20.98338 C95.248696,19.9913684 96.1576526,19.3086316 97.17925,19.34764 Z M87.35894,20.86231 C85.85308,20.86231 84.95855,22.02442 84.95855,23.96973 C84.95855,25.93164 85.85308,27.07618 87.35894,27.07618 C88.8648,27.07618 89.76031,25.93164 89.76031,23.96973 C89.76031,22.01563 88.8648,20.86231 87.35894,20.86231 Z M47.85695,20.93164 C46.43703,20.93164 45.48195,22.16211 45.48195,23.96973 C45.48195,25.79395 46.43703,27.01563 47.85695,27.01563 C49.30227,27.01563 50.24953,25.81934 50.24953,23.96973 C50.24953,22.13673 49.30226,20.93164 47.85695,20.93164 Z M57.82179,20.93164 C56.40187,20.93164 55.44679,22.16211 55.44679,23.96973 C55.44679,25.79395 56.40187,27.01563 57.82179,27.01563 C59.26711,27.01563 60.21438,25.81934 60.21438,23.96973 C60.21438,22.13673 59.2671,20.93164 57.82179,20.93164 Z M36.96149,18.14355 L36.90973,18.14355 L35.0591,23.59082 L38.8111,23.59082 L36.96149,18.14355 Z M102.40774,20.83691 C101.796482,20.8332622 101.209091,21.0739346 100.776126,21.5054332 C100.34316,21.9369319 100.100496,22.5235029 100.102062,23.13477 L104.62844,23.13477 C104.662165,22.5290975 104.441697,21.9368231 104.02015,21.5006315 C103.598604,21.06444 103.014201,20.8238804 102.40774,20.83691 Z" fill="#FFFFFF"></path>
        <path d="M99.80617,8.10791 C101.0591,8.10791 101.81496,8.96391 101.81496,10.37791 L101.81496,10.688 L98.63527,10.688 L98.63527,10.7378 C98.607132,11.0719401 98.7212507,11.4024478 98.9495608,11.6480407 C99.1778709,11.8936336 99.4991879,12.0315239 99.83449,12.0278 C100.269262,12.0799947 100.692483,11.864333 100.90578,11.4819 L101.76125,11.48193 C101.512057,12.3313095 100.690099,12.880103 99.81008,12.78466 C99.2096439,12.8005102 98.6325914,12.5516307 98.2320282,12.1040552 C97.8314651,11.6564796 97.6478864,11.0554559 97.73,10.46045 C97.6500674,9.86379048 97.8329582,9.26180373 98.2312908,8.81044696 C98.6296234,8.35909018 99.204202,8.10277675 99.80617,8.10791 Z M41.9290141,8.42859737 C42.6179463,8.85611193 43.0049629,9.63722505 42.92775,10.44434 C43.0064319,11.2523223 42.6197687,12.0349504 41.9302255,12.4633853 C41.2406824,12.8918202 40.3677476,12.8918202 39.6782045,12.4633853 C38.9886613,12.0349504 38.6019981,11.2523223 38.68068,10.44434 C38.6034671,9.63722505 38.9904837,8.85611193 39.6794159,8.42859737 C40.3683482,8.0010828 41.2400818,8.0010828 41.9290141,8.42859737 Z M61.4664426,8.4285182 C62.155426,8.85603936 62.5425036,9.63717225 62.46535,10.44434 C62.543932,11.2523512 62.1571979,12.0349572 61.4676205,12.4633732 C60.7780432,12.8917893 59.9050968,12.8917893 59.2155195,12.4633732 C58.5259421,12.0349572 58.139208,11.2523512 58.21779,10.44434 C58.1406364,9.63717225 58.527714,8.85603936 59.2166974,8.4285182 C59.9056808,8.00099704 60.7774592,8.00099704 61.4664426,8.4285182 Z M79.4783341,8.42859737 C80.1672663,8.85611193 80.5542829,9.63722505 80.47707,10.44434 C80.5557519,11.2523223 80.1690887,12.0349504 79.4795455,12.4633853 C78.7900024,12.8918202 77.9170676,12.8918202 77.2275245,12.4633853 C76.5379813,12.0349504 76.1513181,11.2523223 76.23,10.44434 C76.1527871,9.63722505 76.5398037,8.85611193 77.2287359,8.42859737 C77.9176682,8.0010828 78.7894018,8.0010828 79.4783341,8.42859737 Z M65.41457,8.10792 C66.54348,8.10792 67.1802,8.66992 67.1802,9.6211 L67.1802,12.69776 L66.32473,12.69776 L66.32473,12.06495 L66.25442,12.06495 C65.9638686,12.5270763 65.4471736,12.7971632 64.90188,12.77195 C64.5196161,12.8117118 64.1383711,12.6879107 63.8523958,12.4311524 C63.5664205,12.1743942 63.4024061,11.8086433 63.4009,11.42432 C63.4009,10.61377 64.00442,10.14649 65.0757,10.08008 L66.29543,10.00977 L66.29543,9.6211 C66.29543,9.14551 65.98098,8.87696 65.37356,8.87696 C64.87747,8.87696 64.53372,9.05909 64.43508,9.37745 L63.57473,9.37745 C63.66555,8.60401 64.39309,8.10792 65.41457,8.10792 Z M72.55324,6.437 L72.55324,12.69774 L71.70168,12.69774 L71.70168,11.98631 L71.63137,11.98631 C71.3427542,12.490737 70.7980745,12.7933565 70.21731,12.77195 C69.0718,12.772 68.34816,11.87061 68.34816,10.44434 C68.34816,9.02149 69.07961,8.12012 70.2173,8.12012 C70.7917768,8.09365013 71.3298275,8.40147287 71.59816,8.91012 L71.66457,8.91012 L71.66457,6.437 L72.55324,6.437 Z M90.51516,7.07373 L90.51516,8.21533 L91.49075,8.21533 L91.49075,8.96387 L90.51516,8.96387 L90.51516,11.2793 C90.51516,11.75098 90.7095,11.95752 91.15188,11.95752 C91.2651356,11.9571575 91.3782775,11.9503097 91.49075,11.93701 L91.49075,12.67724 C91.3311595,12.7057907 91.1694656,12.72098 91.00735,12.72265 C90.01907,12.72265 89.62551,12.37499 89.62551,11.50683 L89.62551,8.96383 L88.91067,8.96383 L88.91067,8.21529 L89.62551,8.21529 L89.62551,7.07373 L90.51516,7.07373 Z M36.9317613,7.54887182 C37.4756303,8.12319621 37.7332859,8.91114479 37.63381,9.69584 C37.63381,11.60209 36.60354,12.69784 34.82619,12.69784 L32.67092,12.69784 L32.67092,6.731 L34.82619,6.731 C35.6151366,6.67438418 36.3878923,6.97454743 36.9317613,7.54887182 Z M44.47073,8.19482 L45.27737,11.63082 L45.34378,11.63082 L46.26956,8.19482 L47.1221,8.19482 L48.04788,11.63082 L48.11819,11.63082 L48.92092,8.19482 L49.80959,8.19482 L48.57326,12.69775 L47.65139,12.69775 L46.72073,9.38134 L46.65042,9.38134 L45.72366,12.69775 L44.81057,12.69775 L43.56936,8.19482 L44.47073,8.19482 Z M53.11916,8.1079 C53.5629768,8.07453177 53.9978859,8.2447899 54.3010908,8.57060207 C54.6042957,8.89641424 54.7428931,9.34242376 54.67775,9.7827 L54.67775,12.6977 L53.78908,12.6977 L53.78908,10.00586 C53.78908,9.28223 53.47463,8.92236 52.8174,8.92236 C52.5163658,8.90833912 52.2242202,9.02648257 52.0175546,9.24581678 C51.810889,9.465151 51.710315,9.76380101 51.7422,10.06347 L51.7422,12.69775 L50.85353,12.69775 L50.85353,8.19482 L51.709,8.19482 L51.709,8.91015 L51.77541,8.91015 C52.0063449,8.38347794 52.5459729,8.06130747 53.11916,8.1079 Z M56.98244,6.437 L56.98244,12.69774 L56.09377,12.69774 L56.09377,6.437 L56.98244,6.437 Z M83.93508,8.1079 C84.3788968,8.07453177 84.8138059,8.2447899 85.1170108,8.57060207 C85.4202157,8.89641424 85.5588131,9.34242376 85.49367,9.7827 L85.49367,12.6977 L84.605,12.6977 L84.605,10.00586 C84.605,9.28223 84.29055,8.92236 83.63332,8.92236 C83.3322858,8.90833912 83.0401402,9.02648257 82.8334746,9.24581678 C82.626809,9.465151 82.526235,9.76380101 82.55812,10.06347 L82.55812,12.69775 L81.66945,12.69775 L81.66945,8.19482 L82.52492,8.19482 L82.52492,8.91015 L82.59133,8.91015 C82.8222649,8.38347794 83.3618929,8.06130747 83.93508,8.1079 Z M93.58547,6.437 L93.58547,8.91845 L93.65578,8.91845 C93.8978078,8.38716856 94.4468801,8.06458754 95.02878,8.11181 C95.4700766,8.08779728 95.8990983,8.26180371 96.1989893,8.58643385 C96.4988802,8.91106399 96.6384049,9.35250564 96.57956,9.79052 L96.57956,12.69775 L95.69,12.69775 L95.69,10.00975 C95.69,9.29051 95.355,8.92625 94.72711,8.92625 C94.417939,8.90089367 94.1133391,9.01329096 93.8947423,9.2333935 C93.6761456,9.45349605 93.5658419,9.75886031 93.59332,10.06785 L93.59332,12.69775 L92.70465,12.69775 L92.70461,6.437 L93.58547,6.437 Z M66.29543,10.66309 L65.19582,10.7334 C64.5757,10.7749 64.29445,10.98584 64.29445,11.38281 C64.29445,11.78808 64.64601,12.02392 65.12945,12.02392 C65.4156361,12.0528899 65.7013264,11.9644751 65.9211204,11.7789156 C66.1409144,11.5933561 66.2759916,11.3265411 66.29543,11.03955 L66.29543,10.66309 Z M40.80568,8.89747 C40.03322,8.89747 39.59868,9.46827 39.59868,10.44435 C39.59868,11.42824 40.03325,11.99464 40.80568,11.99464 C41.57522,11.99464 42.01369,11.42432 42.01369,10.44434 C42.01369,9.46827 41.5752,8.89747 40.80568,8.89747 Z M60.34279,8.89747 C59.57033,8.89747 59.13579,9.46827 59.13579,10.44435 C59.13579,11.42824 59.57036,11.99464 60.34279,11.99464 C61.11232,11.99464 61.5508,11.42432 61.5508,10.44434 C61.5508,9.46827 61.11231,8.89747 60.34279,8.89747 Z M78.355,8.89747 C77.58254,8.89747 77.148,9.46827 77.148,10.44435 C77.148,11.42824 77.58257,11.99464 78.355,11.99464 C79.12453,11.99464 79.563,11.42432 79.563,10.44434 C79.563,9.46827 79.12452,8.89747 78.355,8.89747 Z M70.46929,8.91846 C69.72121,8.91846 69.26613,9.49707 69.26613,10.44434 C69.26616,11.39942 69.71636,11.97413 70.46929,11.97413 C71.21829,11.97413 71.6812,11.39113 71.6812,10.44825 C71.6812,9.50977 71.21343,8.91846 70.46929,8.91846 Z M34.72267,7.57421 L33.59767,7.57421 L33.59767,11.854 L34.72267,11.854 C35.2864919,11.887702 35.8354865,11.665559 36.2172185,11.2492518 C36.5989505,10.8329446 36.7727796,10.2667944 36.69044,9.708 C36.766789,9.15152453 36.5904566,8.59004622 36.2096711,8.17713398 C35.8288856,7.76422175 35.2834957,7.5430863 34.72267,7.57421 Z M99.80126,8.86426 C99.490752,8.86035891 99.191828,8.98202124 98.9722963,9.20164888 C98.7527647,9.42127653 98.6312331,9.72025374 98.63527,10.03076 L100.90966,10.03076 C100.932313,9.72516044 100.824858,9.42420507 100.613777,9.20205909 C100.402695,8.97991311 100.107617,8.85723623 99.80126,8.86426 Z" fill="#FFFFFF"></path>
        <path d="M19.8550052,11.9736961 L20.13428,11.99094 C21.730392,12.0408784 23.2095126,12.8405128 24.12544,14.14862 C22.6801229,15.0371861 21.790737,16.6042091 21.76888,18.30068 C21.7709432,20.2200343 22.9203766,21.9521813 24.68812,22.69985 C24.3481437,23.8042759 23.8356761,24.8479997 23.1697,25.79236 C22.27532,27.13026 21.33757,28.43734 19.84919,28.4615 C18.40298,28.49488 17.91695,27.6104 16.25819,27.6104 C14.58389,27.6104 14.06585,28.43735 12.67879,28.49488 C11.26134,28.54738 10.17806,27.06693 9.25116,25.74158 C7.39855,23.03497 5.95596,18.11392 7.88996,14.7655 C8.79813717,13.1335255 10.4962013,12.0979384 12.36288,12.03763 C13.78161,12.00844 15.09911,12.99577 15.97138,12.99577 C16.82709,12.99577 18.45504,11.81468 20.13428,11.99094 Z M20.15177,6.72027 C20.248585,7.98450245 19.8487766,9.23668191 19.03725,10.21089 C18.2499161,11.1901532 17.0569368,11.7542068 15.80048,11.74127 C15.7205746,10.5134327 16.1320187,9.30418903 16.94419,8.37988 C17.7666802,7.44304968 18.9119378,6.85049049 20.15177,6.72027 Z" fill="#FFFFFF"></path>
    </g>
</svg>