<?xml version="1.0" encoding="UTF-8"?>
<svg width="162px" height="44px" viewBox="0 0 162 44" version="1.1" xmlns="http://www.w3.org/2000/svg">
    <g transform="translate(3.000000, 3.000000)">
        <path d="M10.0171661,37.4980132 L144.547433,37.5000005 L145.982206,37.4980132 C146.363324,37.4980132 146.765252,37.4943537 147.164856,37.4874045 C147.97458,37.4800066 148.782383,37.4270782 149.579111,37.3293654 C150.308239,37.2364947 151.013691,37.0618879 151.67069,36.8120448 C152.312743,36.5670052 152.895908,36.2470436 153.401798,35.8623057 C153.899942,35.4915782 154.314639,35.0667026 154.628558,34.6084763 C154.943767,34.1381644 155.159405,33.6373992 155.27017,33.1195301 C155.398295,32.5421374 155.469922,31.9588155 155.484461,31.3780889 C155.486151,31.2698552 155.486151,31.2698552 155.487323,31.1618423 C155.489185,30.9720274 155.489549,30.8210135 155.489765,30.4482704 C155.492207,30.3653153 155.494137,30.2800199 155.495623,30.1909862 C155.499271,29.9723372 155.5,29.7967825 155.5,29.3948656 L155.5,8.60407142 C155.5,8.52932981 155.5,8.52932981 155.499972,8.45483483 C155.499746,8.05929615 155.497353,7.80465809 155.489549,7.51947401 C155.489549,7.49015074 155.489549,7.49015074 155.489548,7.4608393 C155.489527,7.07120937 155.488757,6.86190942 155.48587,6.64774694 C155.470905,6.05169676 155.397983,5.45711149 155.26734,4.86730258 C155.156238,4.35957007 154.942477,3.86503673 154.634829,3.40433128 C153.989793,2.45974801 152.954751,1.68094336 151.676372,1.18621187 C151.016458,0.937336783 150.309444,0.763266823 149.581137,0.670381825 C148.787022,0.572527356 147.984093,0.519778019 147.17849,0.512589066 L145.975724,0.5 L10.0228872,0.49997419 L8.82873224,0.512107922 C8.01619658,0.519667856 7.20560177,0.572912057 6.40597317,0.67111071 C5.6836406,0.763009037 4.98467971,0.935685095 4.33512686,1.18212597 C3.69229368,1.42941953 3.10711182,1.74980535 2.5990219,2.1322117 C2.09905613,2.50455077 1.68520253,2.93250528 1.37201212,3.39938947 C1.05640637,3.86765195 0.839293948,4.36626015 0.726673592,4.87884394 C0.598189223,5.4610288 0.5289131,6.04934948 0.519066845,6.64998944 C0.517355283,6.69461626 0.516200959,6.73618099 0.512922734,6.86961065 C0.510829449,6.96117603 0.510829449,6.96117603 0.508793879,7.05794226 C0.505146421,7.23415778 0.501926631,7.41057714 0.5,7.51947401 L0.499938067,30.4599805 C0.501828254,30.5800611 0.50492741,30.7605394 0.508538289,30.9407795 C0.511314012,31.0757048 0.511314012,31.0757048 0.514213402,31.1971081 C0.516710509,31.2914317 0.516710509,31.2914317 0.519296801,31.3664955 C0.529266958,31.9571204 0.598962314,32.5464741 0.727971427,33.1301949 C0.840205953,33.6405685 1.05701167,34.137425 1.37284688,34.6047512 C1.68631279,35.0706526 2.10218713,35.4979901 2.60992269,35.8725466 C3.11119956,36.2521131 3.69334101,36.5702159 4.33376382,36.8136383 C4.98734105,37.0618392 5.68799819,37.2358346 6.40858811,37.3290375 C7.20789907,37.4265448 8.01583947,37.4794839 8.82927051,37.487455 C9.2448554,37.4944749 9.63266724,37.4980132 10.0171587,37.4980132 Z" stroke-opacity="0.2" stroke="#FFFFFF" fill="#000000"></path>
        <path d="M84.80422,19.34765 C87.10207,19.34766 88.61672,21.16406 88.61672,23.96973 C88.61672,26.78321 87.11086,28.59082 84.8384,28.59082 C83.6637853,28.6522646 82.5573624,28.0370307 81.98977,27.00682 L81.94677,27.00682 L81.94677,31.4912 L80.0884,31.4912 L80.0884,19.44238 L81.88723,19.44238 L81.88723,20.94824 L81.92141,20.94824 C82.5142167,19.9244863 83.6218337,19.3095166 84.80422,19.34765 Z M94.76903,19.34765 C97.06691,19.34766 98.58156,21.16406 98.58156,23.96973 C98.58156,26.78321 97.0757,28.59082 94.80324,28.59082 C93.6286253,28.6522646 92.5222024,28.0370307 91.95461,27.00682 L91.91161,27.00682 L91.91161,31.4912 L90.05321,31.4912 L90.05321,19.44238 L91.85204,19.44238 L91.85204,20.94824 L91.88622,20.94824 C92.4790283,19.9244879 93.5866443,19.3095188 94.76903,19.34765 Z M108.11086,15.87104 C110.73486,15.87104 112.53371,17.34272 112.59426,19.4853 L110.71826,19.4853 C110.60596,18.24604 109.58154,17.498 108.08447,17.498 C106.5874,17.498 105.56298,18.25484 105.56298,19.3564 C105.56298,20.23433 106.21729,20.75093 107.81787,21.1464 L109.18603,21.48234 C111.73388,22.08488 112.79248,23.10834 112.79248,24.92472 C112.79248,27.24796 110.94189,28.70304 107.99853,28.70304 C105.24462,28.70304 103.38525,27.28214 103.26513,25.03604 L105.1675,25.03613 C105.3052,26.26758 106.5015,27.07613 108.13625,27.07613 C109.70266,27.07613 110.82961,26.26754 110.82961,25.15718 C110.82961,24.19331 110.14992,23.61618 108.54055,23.22066 L106.93118,22.83296 C104.65091,22.28218 103.59231,21.21577 103.59231,19.4853 C103.59231,17.34272 105.4595,15.87104 108.11086,15.87104 Z M50.50051,19.33101 C52.66067,19.33101 54.08938,20.50972 54.08938,22.29101 L54.08938,28.49609 L52.30813,28.49609 L52.30813,27.00684 L52.26513,27.00684 C51.684103,28.0353586 50.588912,28.6656735 49.40771,28.65137 C48.6375241,28.7267246 47.8713184,28.473418 47.2978158,27.9538417 C46.7243133,27.4342654 46.3968199,26.696713 46.396,25.92285 C46.396,24.33985 47.60889,23.38379 49.76123,23.25485 L52.23975,23.11715 L52.23975,22.42867 C52.23975,21.42183 51.57666,20.85347 50.44875,20.85347 C49.5843868,20.7385149 48.7695308,21.2846793 48.54738,22.12788 L46.8091,22.12788 C46.86086,20.49214 48.3843,19.33101 50.50051,19.33101 Z M63.66655,22.55762 L61.89309,22.55762 C61.7246201,21.5307287 60.7965356,20.8048247 59.7593,20.88867 C58.33059,20.88867 57.3843,22.08496 57.3843,23.96972 C57.3843,25.89745 58.33938,27.05859 59.7759,27.05859 C60.8004146,27.16119 61.7278897,26.44889 61.89309,25.43259 L63.68309,25.43259 C63.4515185,27.3793874 61.7116129,28.7876201 59.7593,28.6084 C57.1773,28.6084 55.49075,26.84375 55.49075,23.96973 C55.49075,21.15528 57.17727,19.33106 59.74175,19.33106 C61.7085327,19.1642769 63.449747,20.5957211 63.66655,22.55762 Z M138.86379,19.33105 C141.36867,19.33105 142.94387,21.05175 142.94387,23.79687 L142.94387,24.43359 L136.54934,24.43359 L136.54934,24.54589 C136.489637,25.2199216 136.722382,25.8871194 137.18837,26.3777699 C137.654358,26.8684204 138.308677,27.1352333 138.98489,27.11034 C139.886732,27.1948396 140.736993,26.6769777 141.07571,25.8369 L142.84035,25.83691 C142.59035,27.48046 140.98976,28.60839 138.94191,28.60839 C136.30812,28.60839 134.67336,26.84374 134.67336,24.01269 C134.67336,21.17285 136.31691,19.33105 138.86379,19.33105 Z M123.81495,19.33106 C126.43995,19.33106 128.10987,21.12106 128.10987,23.96973 C128.10987,26.82618 126.44874,28.6084 123.81495,28.6084 C121.18215,28.6084 119.521,26.82617 119.521,23.96973 C119.521,21.1211 121.19873,19.33106 123.81495,19.33106 Z M116.80324,17.2998 L116.80324,19.44238 L118.52492,19.44238 L118.52492,20.91406 L116.80324,20.91406 L116.80324,25.90527 C116.80324,26.68066 117.14797,27.04199 117.9048,27.04199 C118.109191,27.0384259 118.313252,27.0240726 118.51613,26.99899 L118.51613,28.46188 C118.175858,28.5254596 117.830001,28.5542545 117.4839,28.54782 C115.6509,28.54782 114.93605,27.85934 114.93605,26.10348 L114.93605,20.91406 L113.61964,20.91406 L113.61964,19.44238 L114.93605,19.44238 L114.93605,17.2998 L116.80324,17.2998 Z M133.63628,19.34764 C133.850444,19.3468922 134.064017,19.3701507 134.273,19.41698 L134.273,21.15526 C134.002631,21.0726444 133.72059,21.0347124 133.438,21.04296 C132.89165,21.0207984 132.362905,21.238539 131.990598,21.6390099 C131.618291,22.0394808 131.439617,22.5826725 131.50149,23.12596 L131.50149,28.49608 L129.64309,28.49608 L129.64309,19.44238 L131.41555,19.44238 L131.41555,20.98338 L131.45855,20.98338 C131.705726,19.9913684 132.614683,19.3086316 133.63628,19.34764 Z M74.4507,16.0781 L78.9341,28.4961 L76.895,28.4961 L75.7593,25.13965 L71.0259,25.13965 L69.88918,28.4961 L67.8843,28.4961 L72.3677,16.0781 L74.4507,16.0781 Z M34.57765,16.0781 L38.5962,25.87986 L38.66456,25.87986 L42.6753,16.0781 L44.9126,16.0781 L44.9126,28.4961 L43.14895,28.4961 L43.14895,19.35645 L43.0884,19.35645 L39.34524,28.40137 L37.91652,28.40137 L34.16359,19.35645 L34.104,19.35645 L34.104,28.4961 L32.34816,28.4961 L32.34816,16.0781 L34.57765,16.0781 Z M52.23977,24.4082 L50.01026,24.5459 C48.89991,24.61524 48.27198,25.09668 48.27198,25.8711 C48.27198,26.6631 48.92628,27.17969 49.92432,27.17969 C50.508282,27.2193068 51.0834921,27.0213952 51.5194509,26.6308558 C51.9554097,26.2403164 52.2151594,25.6902566 52.23977,25.10547 L52.23977,24.4082 Z M123.81494,20.86231 C122.30908,20.86231 121.41357,22.02442 121.41357,23.96973 C121.41357,25.93164 122.30908,27.07618 123.81494,27.07618 C125.3208,27.07618 126.21633,25.93164 126.21633,23.96973 C126.21633,22.01563 125.3208,20.86231 123.81494,20.86231 Z M84.31398,20.93164 C82.89406,20.93164 81.93898,22.16211 81.93898,23.96973 C81.93898,25.79395 82.89406,27.01563 84.31398,27.01563 C85.7593,27.01563 86.70656,25.81934 86.70656,23.96973 C86.70656,22.13673 85.75929,20.93164 84.31398,20.93164 Z M94.27882,20.93164 C92.8589,20.93164 91.90382,22.16211 91.90382,23.96973 C91.90382,25.79395 92.8589,27.01563 94.27882,27.01563 C95.72414,27.01563 96.67141,25.81934 96.67141,23.96973 C96.67141,22.13673 95.72413,20.93164 94.27882,20.93164 Z M73.41853,18.14355 L73.36677,18.14355 L71.51614,23.59082 L75.26814,23.59082 L73.41853,18.14355 Z M138.86379,20.83691 C138.252534,20.8332649 137.665145,21.0739385 137.232182,21.5054368 C136.799219,21.9369351 136.556556,22.5235047 136.55812,23.13477 L141.08449,23.13477 C141.118215,22.5290975 140.897747,21.9368231 140.4762,21.5006315 C140.054654,21.06444 139.470251,20.8238804 138.86379,20.83691 Z" fill="#FFFFFF"></path>
        <path d="M99.80617,8.10791 C101.0591,8.10791 101.81496,8.96391 101.81496,10.37791 L101.81496,10.688 L98.63527,10.688 L98.63527,10.7378 C98.607132,11.0719401 98.7212507,11.4024478 98.9495608,11.6480407 C99.1778709,11.8936336 99.4991879,12.0315239 99.83449,12.0278 C100.269262,12.0799947 100.692483,11.864333 100.90578,11.4819 L101.76125,11.48193 C101.512057,12.3313095 100.690099,12.880103 99.81008,12.78466 C99.2096439,12.8005102 98.6325914,12.5516307 98.2320282,12.1040552 C97.8314651,11.6564796 97.6478864,11.0554559 97.73,10.46045 C97.6500674,9.86379048 97.8329582,9.26180373 98.2312908,8.81044696 C98.6296234,8.35909018 99.204202,8.10277675 99.80617,8.10791 Z M41.9290141,8.42859737 C42.6179463,8.85611193 43.0049629,9.63722505 42.92775,10.44434 C43.0064319,11.2523223 42.6197687,12.0349504 41.9302255,12.4633853 C41.2406824,12.8918202 40.3677476,12.8918202 39.6782045,12.4633853 C38.9886613,12.0349504 38.6019981,11.2523223 38.68068,10.44434 C38.6034671,9.63722505 38.9904837,8.85611193 39.6794159,8.42859737 C40.3683482,8.0010828 41.2400818,8.0010828 41.9290141,8.42859737 Z M61.4664426,8.4285182 C62.155426,8.85603936 62.5425036,9.63717225 62.46535,10.44434 C62.543932,11.2523512 62.1571979,12.0349572 61.4676205,12.4633732 C60.7780432,12.8917893 59.9050968,12.8917893 59.2155195,12.4633732 C58.5259421,12.0349572 58.139208,11.2523512 58.21779,10.44434 C58.1406364,9.63717225 58.527714,8.85603936 59.2166974,8.4285182 C59.9056808,8.00099704 60.7774592,8.00099704 61.4664426,8.4285182 Z M79.4783341,8.42859737 C80.1672663,8.85611193 80.5542829,9.63722505 80.47707,10.44434 C80.5557519,11.2523223 80.1690887,12.0349504 79.4795455,12.4633853 C78.7900024,12.8918202 77.9170676,12.8918202 77.2275245,12.4633853 C76.5379813,12.0349504 76.1513181,11.2523223 76.23,10.44434 C76.1527871,9.63722505 76.5398037,8.85611193 77.2287359,8.42859737 C77.9176682,8.0010828 78.7894018,8.0010828 79.4783341,8.42859737 Z M65.41457,8.10792 C66.54348,8.10792 67.1802,8.66992 67.1802,9.6211 L67.1802,12.69776 L66.32473,12.69776 L66.32473,12.06495 L66.25442,12.06495 C65.9638686,12.5270763 65.4471736,12.7971632 64.90188,12.77195 C64.5196161,12.8117118 64.1383711,12.6879107 63.8523958,12.4311524 C63.5664205,12.1743942 63.4024061,11.8086433 63.4009,11.42432 C63.4009,10.61377 64.00442,10.14649 65.0757,10.08008 L66.29543,10.00977 L66.29543,9.6211 C66.29543,9.14551 65.98098,8.87696 65.37356,8.87696 C64.87747,8.87696 64.53372,9.05909 64.43508,9.37745 L63.57473,9.37745 C63.66555,8.60401 64.39309,8.10792 65.41457,8.10792 Z M72.55324,6.437 L72.55324,12.69774 L71.70168,12.69774 L71.70168,11.98631 L71.63137,11.98631 C71.3427542,12.490737 70.7980745,12.7933565 70.21731,12.77195 C69.0718,12.772 68.34816,11.87061 68.34816,10.44434 C68.34816,9.02149 69.07961,8.12012 70.2173,8.12012 C70.7917768,8.09365013 71.3298275,8.40147287 71.59816,8.91012 L71.66457,8.91012 L71.66457,6.437 L72.55324,6.437 Z M90.51516,7.07373 L90.51516,8.21533 L91.49075,8.21533 L91.49075,8.96387 L90.51516,8.96387 L90.51516,11.2793 C90.51516,11.75098 90.7095,11.95752 91.15188,11.95752 C91.2651356,11.9571575 91.3782775,11.9503097 91.49075,11.93701 L91.49075,12.67724 C91.3311595,12.7057907 91.1694656,12.72098 91.00735,12.72265 C90.01907,12.72265 89.62551,12.37499 89.62551,11.50683 L89.62551,8.96383 L88.91067,8.96383 L88.91067,8.21529 L89.62551,8.21529 L89.62551,7.07373 L90.51516,7.07373 Z M36.9317613,7.54887182 C37.4756303,8.12319621 37.7332859,8.91114479 37.63381,9.69584 C37.63381,11.60209 36.60354,12.69784 34.82619,12.69784 L32.67092,12.69784 L32.67092,6.731 L34.82619,6.731 C35.6151366,6.67438418 36.3878923,6.97454743 36.9317613,7.54887182 Z M44.47073,8.19482 L45.27737,11.63082 L45.34378,11.63082 L46.26956,8.19482 L47.1221,8.19482 L48.04788,11.63082 L48.11819,11.63082 L48.92092,8.19482 L49.80959,8.19482 L48.57326,12.69775 L47.65139,12.69775 L46.72073,9.38134 L46.65042,9.38134 L45.72366,12.69775 L44.81057,12.69775 L43.56936,8.19482 L44.47073,8.19482 Z M53.11916,8.1079 C53.5629768,8.07453177 53.9978859,8.2447899 54.3010908,8.57060207 C54.6042957,8.89641424 54.7428931,9.34242376 54.67775,9.7827 L54.67775,12.6977 L53.78908,12.6977 L53.78908,10.00586 C53.78908,9.28223 53.47463,8.92236 52.8174,8.92236 C52.5163658,8.90833912 52.2242202,9.02648257 52.0175546,9.24581678 C51.810889,9.465151 51.710315,9.76380101 51.7422,10.06347 L51.7422,12.69775 L50.85353,12.69775 L50.85353,8.19482 L51.709,8.19482 L51.709,8.91015 L51.77541,8.91015 C52.0063449,8.38347794 52.5459729,8.06130747 53.11916,8.1079 Z M56.98244,6.437 L56.98244,12.69774 L56.09377,12.69774 L56.09377,6.437 L56.98244,6.437 Z M83.93508,8.1079 C84.3788968,8.07453177 84.8138059,8.2447899 85.1170108,8.57060207 C85.4202157,8.89641424 85.5588131,9.34242376 85.49367,9.7827 L85.49367,12.6977 L84.605,12.6977 L84.605,10.00586 C84.605,9.28223 84.29055,8.92236 83.63332,8.92236 C83.3322858,8.90833912 83.0401402,9.02648257 82.8334746,9.24581678 C82.626809,9.465151 82.526235,9.76380101 82.55812,10.06347 L82.55812,12.69775 L81.66945,12.69775 L81.66945,8.19482 L82.52492,8.19482 L82.52492,8.91015 L82.59133,8.91015 C82.8222649,8.38347794 83.3618929,8.06130747 83.93508,8.1079 Z M93.58547,6.437 L93.58547,8.91845 L93.65578,8.91845 C93.8978078,8.38716856 94.4468801,8.06458754 95.02878,8.11181 C95.4700766,8.08779728 95.8990983,8.26180371 96.1989893,8.58643385 C96.4988802,8.91106399 96.6384049,9.35250564 96.57956,9.79052 L96.57956,12.69775 L95.69,12.69775 L95.69,10.00975 C95.69,9.29051 95.355,8.92625 94.72711,8.92625 C94.417939,8.90089367 94.1133391,9.01329096 93.8947423,9.2333935 C93.6761456,9.45349605 93.5658419,9.75886031 93.59332,10.06785 L93.59332,12.69775 L92.70465,12.69775 L92.70461,6.437 L93.58547,6.437 Z M66.29543,10.66309 L65.19582,10.7334 C64.5757,10.7749 64.29445,10.98584 64.29445,11.38281 C64.29445,11.78808 64.64601,12.02392 65.12945,12.02392 C65.4156361,12.0528899 65.7013264,11.9644751 65.9211204,11.7789156 C66.1409144,11.5933561 66.2759916,11.3265411 66.29543,11.03955 L66.29543,10.66309 Z M40.80568,8.89747 C40.03322,8.89747 39.59868,9.46827 39.59868,10.44435 C39.59868,11.42824 40.03325,11.99464 40.80568,11.99464 C41.57522,11.99464 42.01369,11.42432 42.01369,10.44434 C42.01369,9.46827 41.5752,8.89747 40.80568,8.89747 Z M60.34279,8.89747 C59.57033,8.89747 59.13579,9.46827 59.13579,10.44435 C59.13579,11.42824 59.57036,11.99464 60.34279,11.99464 C61.11232,11.99464 61.5508,11.42432 61.5508,10.44434 C61.5508,9.46827 61.11231,8.89747 60.34279,8.89747 Z M78.355,8.89747 C77.58254,8.89747 77.148,9.46827 77.148,10.44435 C77.148,11.42824 77.58257,11.99464 78.355,11.99464 C79.12453,11.99464 79.563,11.42432 79.563,10.44434 C79.563,9.46827 79.12452,8.89747 78.355,8.89747 Z M70.46929,8.91846 C69.72121,8.91846 69.26613,9.49707 69.26613,10.44434 C69.26616,11.39942 69.71636,11.97413 70.46929,11.97413 C71.21829,11.97413 71.6812,11.39113 71.6812,10.44825 C71.6812,9.50977 71.21343,8.91846 70.46929,8.91846 Z M34.72267,7.57421 L33.59767,7.57421 L33.59767,11.854 L34.72267,11.854 C35.2864919,11.887702 35.8354865,11.665559 36.2172185,11.2492518 C36.5989505,10.8329446 36.7727796,10.2667944 36.69044,9.708 C36.766789,9.15152453 36.5904566,8.59004622 36.2096711,8.17713398 C35.8288856,7.76422175 35.2834957,7.5430863 34.72267,7.57421 Z M99.80126,8.86426 C99.490752,8.86035891 99.191828,8.98202124 98.9722963,9.20164888 C98.7527647,9.42127653 98.6312331,9.72025374 98.63527,10.03076 L100.90966,10.03076 C100.932313,9.72516044 100.824858,9.42420507 100.613777,9.20205909 C100.402695,8.97991311 100.107617,8.85723623 99.80126,8.86426 Z" fill="#FFFFFF"></path>
        <path d="M19.8550052,11.9736961 L20.13428,11.99094 C21.730392,12.0408784 23.2095126,12.8405128 24.12544,14.14862 C22.6801229,15.0371861 21.790737,16.6042091 21.76888,18.30068 C21.7709432,20.2200343 22.9203766,21.9521813 24.68812,22.69985 C24.3481437,23.8042759 23.8356761,24.8479997 23.1697,25.79236 C22.27532,27.13026 21.33757,28.43734 19.84919,28.4615 C18.40298,28.49488 17.91695,27.6104 16.25819,27.6104 C14.58389,27.6104 14.06585,28.43735 12.67879,28.49488 C11.26134,28.54738 10.17806,27.06693 9.25116,25.74158 C7.39855,23.03497 5.95596,18.11392 7.88996,14.7655 C8.79813717,13.1335255 10.4962013,12.0979384 12.36288,12.03763 C13.78161,12.00844 15.09911,12.99577 15.97138,12.99577 C16.82709,12.99577 18.45504,11.81468 20.13428,11.99094 Z M20.15177,6.72027 C20.248585,7.98450245 19.8487766,9.23668191 19.03725,10.21089 C18.2499161,11.1901532 17.0569368,11.7542068 15.80048,11.74127 C15.7205746,10.5134327 16.1320187,9.30418903 16.94419,8.37988 C17.7666802,7.44304968 18.9119378,6.85049049 20.15177,6.72027 Z" fill="#FFFFFF"></path>
    </g>
</svg>