<?xml version="1.0" encoding="UTF-8"?>
<svg width="1024px" height="1024px" viewBox="0 0 1024 1024" version="1.1" xmlns="http://www.w3.org/2000/svg" xmlns:xlink="http://www.w3.org/1999/xlink">
        <mask id="mask" fill="white">
            <rect x="382" y="0" width="1024" height="1024"></rect>
        </mask>
        <path fill="white" mask="url(#mask)" transform="translate(-382, 0)" d="M1611.49647,651.95099 C1592.32276,609.450872 1573.82626,568.431839 1540.74138,534.946598 C1498.93732,492.653832 1456.18798,497.47653 1407.87982,527.69915 C1370.26604,551.237135 1324.70625,611.806504 1273.62432,587.700064 C1231.32363,567.740666 1228.31848,491.013353 1175.18091,536.869189 C1139.50567,567.656032 1114.55162,626.363464 1066.54821,639.312389 C994.81961,658.665247 967.675895,608.392953 935.745101,556.047138 C883.470983,470.347265 767.621682,671.811649 681.994613,617.744954 C659.257044,603.371366 642.288518,588.080915 627.773495,565.074711 C619.048679,551.251241 603.08046,511.883972 580.905828,527.694919 C535.186608,560.278813 506.038048,621.031554 446.742033,632.527604 C397.576059,642.048871 366.733045,594.710538 329.73723,571.577384 C278.185477,539.343308 249.618195,650.582748 201.311441,659.285893 C155.933652,667.46713 115.594076,603.258521 91.2086113,573.749644 C76.1828532,555.553443 66.5113441,545.809307 42.9117332,558.02192 C35.6429346,561.774005 30.2068551,574.680612 20.1487679,571.859496 C7.25765503,568.248467 -5.29484918,562.74729 2.30550376,545.522964 C11.8302824,523.937192 48.3590996,511.07149 70.1147043,514.064695 C93.8356499,517.327316 110.595366,538.326296 123.808157,556.639573 C139.573211,578.489119 159.010757,599.23843 179.131165,617.208942 C204.097908,639.523972 233.300081,582.100148 243.674203,568.93964 C267.797246,538.323475 300.322016,523.385663 337.797527,537.637943 C369.931486,549.854788 389.147526,585.739388 421.088196,598.081773 C496.04345,627.012321 549.663538,435.358369 625.245217,503.340221 C654.067866,529.263459 663.484008,579.589355 705.286655,591.550888 C745.465391,603.046937 781.558249,566.372424 811.599889,545.785328 C839.189439,526.882437 879.924057,487.738037 916.842274,499.049303 C959.902005,512.242254 969.034562,559.065733 995.804397,590.055696 C1056.03864,659.765482 1117.09965,544.991183 1154.40304,511.831781 C1181.27586,487.942568 1226.84412,473.082337 1251.06593,507.941462 C1271.78736,537.763483 1287.85011,575.71032 1329.68944,548.204435 C1385.67273,511.394508 1461.35176,436.960763 1531.95166,486.462892 C1560.71929,506.639517 1589.02133,533.892911 1604.78074,565.921046 C1611.3836,579.335454 1658.22447,665.732143 1611.49647,651.95099 C1606.37502,640.595996 1612.24424,652.162574 1611.49647,651.95099"></path>
</svg>