<?xml version="1.0" encoding="UTF-8"?>
<svg width="44px" height="44px" viewBox="0 0 44 44" version="1.1" xmlns="http://www.w3.org/2000/svg" xmlns:xlink="http://www.w3.org/1999/xlink">
    <path fill="#404040" d="M8.12249398,33.581926 C9.45494463,33.581926 10.2814251,33.8906516 11.040597,34.2506111 C11.6378527,34.5339398 12.0909581,34.8776043 12.2569186,35.0111946 C12.2970727,35.0434911 12.3074723,35.1003036 12.2821955,35.1455188 L9.82254213,39.5202314 C9.28941743,40.4684284 8.31459798,41 7.31175734,41 C6.82875301,41 6.33939336,40.8768328 5.88946558,40.6174328 C4.50241695,39.8180936 4.05104478,37.9494453 4.84228214,36.5424908 L5.76091478,34.9084329 C5.99028406,34.5004689 6.32364949,34.160768 6.73168994,33.9399772 C7.08527684,33.7485468 7.55585941,33.581926 8.12249398,33.581926 Z M26.2241213,13.5662798 L33.7957631,27.0333482 L40.1112181,27.0333482 C41.7066923,27.0333482 43,28.3478172 43,29.969397 C43,31.5909767 41.7066923,32.9054457 40.1112181,32.9054457 L37.0973519,32.9054457 L39.0780453,36.4284106 C39.8694271,37.8363928 39.388156,39.6298782 38.0029851,40.4343555 C37.5508907,40.6968383 37.0583534,40.8217672 36.5724603,40.8217672 C35.5696196,40.8217672 34.5949446,40.2903423 34.0615311,39.3418518 L30.442754,32.9054457 L27.1413096,27.0333482 C27.1413096,27.0333482 27.1110248,26.9794832 27.0566056,26.8826922 L26.957645,26.7066787 C26.4570423,25.8162947 25.0666948,23.3433772 24.4756861,22.2920699 C23.7482908,20.9984468 23.7061146,19.4355881 23.9955705,17.6592786 C24.1830525,16.5083475 24.5285508,15.5492871 25.0013,14.8346529 C25.2997111,14.383529 25.6811748,13.8660504 25.9220992,13.5455807 C26.0011074,13.4406169 26.1597015,13.4514803 26.2241213,13.5662798 Z M21.115455,4.47979615 L21.9922003,6.03898484 L22.7687049,4.65801431 C23.5602311,3.25017893 25.3246991,2.76103321 26.7101589,3.56565737 C28.0953298,4.36998792 28.5766009,6.1636201 27.7850746,7.57145548 L25.3194993,11.9570315 L21.9922003,17.8747846 L16.8429466,27.0333482 L23.6811266,27.0333482 C24.6539239,27.0333482 25.7889263,27.2046667 26.4780453,28.0904726 C27.1673086,28.9762785 27.4103996,29.8208329 27.4103996,30.8509456 C27.4103996,31.8809115 27.3495908,32.9054457 25.6268657,32.9054457 L3.8887819,32.9054457 C2.29330766,32.9054457 1,31.5909767 1,29.969397 C1,28.3478172 2.29330766,27.0333482 3.8887819,27.0333482 L10.1886375,27.0333482 L18.6649013,11.9570315 L16.0990852,7.39323732 C15.307559,5.98525514 15.78883,4.19176976 17.174001,3.38729241 C18.5591719,2.58296185 20.3237843,3.07181397 21.115455,4.47979615 Z"></path>
</svg>