<?xml version="1.0" encoding="UTF-8"?>
<svg width="128px" height="44px" viewBox="0 0 128 44" version="1.1" xmlns="http://www.w3.org/2000/svg">
    <path fill="rgb(34, 34, 34)" d="M115.590287,2 C117.819084,2 118.627299,2.23206403 119.442114,2.66783176 C120.256929,3.10359949 120.896401,3.74307093 121.332168,4.55788574 C121.767936,5.37270056 122,6.18091615 122,8.409713 L122,35.590287 C122,37.8190838 121.767936,38.6272994 121.332168,39.4421143 C120.896401,40.2569291 120.256929,40.8964005 119.442114,41.3321682 C118.627299,41.767936 117.819084,42 115.590287,42 L12.409713,42 C10.1809161,42 9.37270056,41.767936 8.55788574,41.3321682 C7.74307093,40.8964005 7.10359949,40.2569291 6.66783176,39.4421143 C6.23206403,38.6272994 6,37.8190838 6,35.590287 L6,8.409713 C6,6.18091615 6.23206403,5.37270056 6.66783176,4.55788574 C7.10359949,3.74307093 7.74307093,3.10359949 8.55788574,2.66783176 C9.37270056,2.23206403 10.1809161,2 12.409713,2 L115.590287,2 Z M66.4003034,23.561162 C65.1952414,23.5220977 64.0663802,24.1520174 63.4621991,25.2006638 L63.4273636,25.2006638 L63.4273636,23.6581853 L61.5940473,23.6581853 L61.5940473,36 L63.4880862,36 L63.4880862,31.406572 L63.5319108,31.406572 C64.110388,32.4618346 65.2380289,33.0920294 66.4351695,33.0290906 C68.7512089,33.0290906 70.285947,31.1775244 70.285947,28.2956282 C70.285947,25.4217319 68.7422503,23.561162 66.4003034,23.561162 Z M56.2443964,23.5611517 C55.0393359,23.5220933 53.9104789,24.1520168 53.3063022,25.2006638 L53.2714668,25.2006638 L53.2714668,23.6581853 L51.4381097,23.6581853 L51.4381097,36 L53.3321486,36 L53.3321486,31.406572 L53.3759732,31.406572 C53.9544504,32.4618346 55.0820914,33.0920294 56.2792319,33.0290906 C58.5952713,33.0290906 60.1300094,31.1775244 60.1300094,28.2956282 C60.1300094,25.4217319 58.5862719,23.561162 56.2443964,23.5611517 Z M27.0842026,15.279917 C25.094431,15.279917 23.4652325,16.4754831 22.4236046,16.4754831 C21.3152201,16.4754831 19.87299,15.3587409 18.1369435,15.3587409 C14.8385112,15.3587409 11.5,18.0388733 11.5,23.0838429 C11.5,26.2369795 12.7285714,29.5608501 14.2642919,31.7023633 C15.5729838,33.5153725 16.7214348,35 18.377367,35 C20.0065034,35 20.7276495,33.9357866 22.7574502,33.9357866 C24.8139784,33.9357866 25.2813994,34.973705 27.0842026,34.973705 C28.8736419,34.973705 30.0621469,33.3577248 31.197259,31.7680396 C32.1270825,30.4153309 32.6612494,29.0914447 32.8811328,28.4585269 L32.9377507,28.2900428 C32.9772108,28.1680171 32.9975367,28.0933154 33,28.0762837 C32.8932142,28.0499887 29.4745763,26.6705411 29.4745763,22.8211376 C29.4745763,19.4840584 32.1587043,17.9863445 32.3189452,17.8681393 C30.5428696,15.3587409 27.8320141,15.279917 27.0842026,15.279917 Z M79.9979922,20 C77.2957865,20 75.3927891,21.5074673 75.3927891,23.702149 C75.3927891,25.4746994 76.4716901,26.5670416 78.7956892,27.131215 L80.4359224,27.5283429 C82.0761556,27.9334808 82.7688801,28.5246451 82.7688801,29.5119538 C82.7688801,30.6493147 81.6203184,31.4775675 80.0238691,31.4775675 C78.3577692,31.4775675 77.1385275,30.6493557 76.9981868,29.3879602 L75.0593347,29.387868 C75.1817583,31.6885871 77.0767857,33.1440395 79.883508,33.1440395 C82.8833133,33.1440395 84.7693924,31.6535759 84.7693924,29.273841 C84.7693924,27.4132915 83.6904915,26.3649438 81.0937809,25.7477516 L79.6993834,25.4036425 C78.0681088,24.9985557 77.4012612,24.4693934 77.4012612,23.5701145 C77.4012612,22.4417676 78.4453165,21.6665233 79.9710961,21.6665233 C81.4968757,21.6665233 82.5409411,22.4327536 82.6553947,23.702149 L84.5673711,23.702149 C84.50566,21.5074673 82.6723131,20 79.9979922,20 Z M111.341676,23.5441481 C108.745954,23.5441481 107.070885,25.4307357 107.070885,28.3396329 C107.070885,31.2395264 108.736995,33.0470879 111.421294,33.0470879 C113.508416,33.0470879 115.1397,31.8917297 115.394495,30.208213 L113.596014,30.2082027 C113.250801,31.0687088 112.384235,31.5991638 111.465098,31.5126093 C110.775918,31.538108 110.10905,31.2648069 109.634126,30.7622252 C109.159201,30.2596434 108.921993,29.5762211 108.982841,28.8857989 L108.982841,28.770768 L115.5,28.770768 L115.5,28.1185647 C115.5,25.3066908 113.894592,23.5441481 111.341676,23.5441481 Z M96.0042921,23.5441583 C93.3379004,23.5441583 91.6279963,25.3777272 91.6279963,28.2956282 C91.6279963,31.2215291 93.3209413,33.0470981 96.0042921,33.0470981 C98.6885908,33.0470981 100.381577,31.2215393 100.381577,28.2956282 C100.381577,25.3776863 98.6796322,23.5441583 96.0042921,23.5441583 Z M88.8570675,21.4635036 L86.9540497,21.4635036 L86.9540497,23.6581853 L85.6124252,23.6581853 L85.6124252,25.1656526 L86.9540701,25.1656526 L86.9540701,30.4812652 C86.9540701,32.279823 87.6826289,32.985045 89.5507807,32.985045 C89.9035187,32.9916359 90.2560088,32.9621408 90.6028059,32.8970151 L90.6028059,31.3985516 C90.3960375,31.4242442 90.1880634,31.4389465 89.9797523,31.4425973 C89.2084085,31.4425973 88.8570675,31.0724807 88.8570675,30.2782353 L88.8570675,25.1656526 L90.6117645,25.1656526 L90.6117645,23.6581853 L88.8570675,23.6581853 L88.8570675,21.4635036 Z M106.012918,23.5611415 C104.971729,23.5211845 104.045341,24.2205236 103.793425,25.2366583 L103.7496,25.2366583 L103.7496,23.6581853 L101.94314,23.6581853 L101.94314,32.9320468 L103.837178,32.9320468 L103.837178,27.43134 C103.774118,26.8748394 103.95622,26.3184369 104.33567,25.9082273 C104.715119,25.4980177 105.254006,25.2749835 105.810835,25.2976871 C106.098844,25.2892378 106.386294,25.3280922 106.661848,25.4127179 L106.661848,23.6321677 C106.448858,23.5841996 106.231189,23.5603755 106.012918,23.5611415 Z M45.6923251,20.2120951 L43.569379,20.2120951 L39,32.9320673 L41.043328,32.9320673 L42.201847,29.4939975 L47.0260203,29.4939975 L48.1835304,32.9320673 L50.2617041,32.9320673 L45.6923251,20.2120951 Z M96.0042819,25.1126442 C97.5390201,25.1126442 98.4517035,26.2940098 98.4517035,28.2956282 C98.4517035,30.3052466 97.5390201,31.4776187 96.0042819,31.4776187 C94.4695438,31.4776187 93.5578592,30.3052466 93.5578592,28.2956282 C93.5578592,26.3030135 94.4695438,25.1126442 96.0042819,25.1126442 Z M65.9006926,25.1836601 C67.3737196,25.1836601 68.3391657,26.4180546 68.3391657,28.2956282 C68.3391657,30.1902157 67.3737297,31.4155963 65.9006926,31.4155963 C64.4535425,31.4155963 63.4801468,30.1642083 63.4801468,28.2956282 C63.4801468,26.4440518 64.4535425,25.1836601 65.9006926,25.1836601 Z M55.744755,25.1836601 C57.217782,25.1836601 58.1832179,26.4180546 58.1832179,28.2956282 C58.1832179,30.1902157 57.2177922,31.4155963 55.744755,31.4155963 C54.2976049,31.4155963 53.3242092,30.1642083 53.3242092,28.2956282 C53.3242092,26.4440518 54.2976049,25.1836601 55.744755,25.1836601 Z M44.6403508,22.3277713 L46.5254311,27.9075041 L42.7014783,27.9075041 L44.5875981,22.3277713 L44.6403508,22.3277713 Z M111.341676,25.0866265 C111.959767,25.0732801 112.555377,25.3196894 112.985007,25.766488 C113.414638,26.2132865 113.639335,26.8199634 113.604962,27.4403642 L108.991774,27.4403642 C108.990185,26.8142328 109.237503,26.2133979 109.678771,25.7714064 C110.12004,25.3294149 110.718695,25.08289 111.341676,25.0866265 Z M103.597078,11.5767247 C103.026835,11.5718808 102.482538,11.8137464 102.105198,12.2396612 C101.727858,12.6655761 101.554606,13.2336302 101.630326,13.7966574 C101.55254,14.3581242 101.726444,14.9252696 102.105897,15.3476163 C102.485349,15.7699631 103.03199,16.0048138 103.600781,15.9898571 C104.434422,16.0799202 105.213061,15.5620609 105.449121,14.7605589 L104.638736,14.7605306 C104.436679,15.1214068 104.035763,15.3249121 103.623905,15.2756595 C103.306274,15.2791735 103.001891,15.1490558 102.785613,14.9173064 C102.569336,14.6855569 102.461231,14.3736793 102.487887,14.0583738 L102.487887,14.0113809 L105.5,14.0113809 L105.5,13.71877 C105.5,12.3844739 104.783975,11.5767247 103.597078,11.5767247 Z M84.3405624,11.8793356 C83.6879384,11.4759191 82.862147,11.4759191 82.209523,11.8793356 C81.5568989,12.2827522 81.190279,13.0198357 81.2634226,13.7814555 C81.1888873,14.5438937 81.5551726,15.2824068 82.2083753,15.6866919 C82.861578,16.0909769 83.6885073,16.0909769 84.34171,15.6866919 C84.9949127,15.2824068 85.361198,14.5438937 85.2866628,13.7814555 C85.3598064,13.0198357 84.9931865,12.2827522 84.3405624,11.8793356 Z M48.7701726,11.8793356 C48.1175485,11.4759191 47.2917571,11.4759191 46.6391331,11.8793356 C45.986509,12.2827522 45.6198891,13.0198357 45.6930327,13.7814555 C45.6184975,14.5438937 45.9847828,15.2824068 46.6379855,15.6866919 C47.2911882,16.0909769 48.1181175,16.0909769 48.7713202,15.6866919 C49.4245229,15.2824068 49.7908082,14.5438937 49.7162729,13.7814555 C49.7894165,13.0198357 49.4227966,12.2827522 48.7701726,11.8793356 Z M67.2779365,11.8792609 C66.625264,11.4758381 65.7994302,11.4758381 65.1467577,11.8792609 C64.4940852,12.2826837 64.1274075,13.0197859 64.2004949,13.7814555 C64.1260543,14.543921 64.4924067,15.2824133 65.1456418,15.6866805 C65.798877,16.0909477 66.6258172,16.0909477 67.2790523,15.6866805 C67.9322875,15.2824133 68.2986399,14.543921 68.2241993,13.7814555 C68.2972867,13.0197859 67.930609,12.2826837 67.2779365,11.8792609 Z M71.017989,11.5767341 C70.0503432,11.5767341 69.3611462,12.0448606 69.2751126,12.7747036 L70.0901203,12.7747036 C70.1835617,12.4742888 70.5091954,12.3024251 70.9791404,12.3024251 C71.554548,12.3024251 71.8524258,12.5558375 71.8524258,13.0046196 L71.8524258,13.3713812 L70.6969782,13.437728 C69.682157,13.5003946 69.1104438,13.9413351 69.1104438,14.7061963 C69.1118705,15.0688562 69.267241,15.4139906 69.5381448,15.6562759 C69.8090486,15.8985613 70.1702012,16.015384 70.5323189,15.9778635 C71.0488744,16.0016555 71.5383384,15.7467928 71.8135771,15.3107154 L71.8801816,15.3107154 L71.8801816,15.9078554 L72.6905665,15.9078554 L72.6905665,13.0046196 C72.6905665,12.1070555 72.0874031,11.5767341 71.017989,11.5767341 Z M77.7804357,10 L76.9386006,10 L76.9386006,12.3337159 L76.8756905,12.3337159 C76.6214997,11.8537401 76.1118054,11.5632686 75.5676048,11.5882464 C74.4898735,11.5882464 73.7969725,12.4388083 73.7969725,13.7814555 C73.7969725,15.1273299 74.4824751,15.9779107 75.5676143,15.9778635 C76.1177713,15.9980633 76.6337451,15.7125018 76.9071503,15.2365082 L76.9737548,15.2365082 L76.9737548,15.9078365 L77.7804357,15.9078365 L77.7804357,10 Z M94.7957238,10.600839 L93.9529603,10.600839 L93.9529603,11.6780519 L93.2757939,11.6780519 L93.2757939,12.3843984 L93.9529603,12.3843984 L93.9529603,14.7840554 C93.9529603,15.6032792 94.3257788,15.9313424 95.2619744,15.9313424 C95.4155461,15.9297666 95.5687184,15.9154335 95.7198981,15.8884921 L95.7198981,15.1899871 C95.6133531,15.2025371 95.5061741,15.208999 95.3988873,15.209341 C94.9798217,15.209341 94.7957238,15.0144432 94.7957238,14.5693507 L94.7957238,12.3844362 L95.7198981,12.3844362 L95.7198981,11.6780896 L94.7957238,11.6780896 L94.7957238,10.600839 Z M42.2280883,10.2710301 L42.0416826,10.2774279 L40,10.2774279 L40,15.9079309 L42.0416826,15.9079309 C43.7253624,15.9079309 44.701335,14.8739458 44.701335,13.0751467 C44.7955683,12.334683 44.5514917,11.5911492 44.0362858,11.0491982 C43.5210798,10.5072471 42.78905,10.2240034 42.0416826,10.2774279 L42.2280883,10.2710301 Z M97.7042219,10 L96.8697851,10 L96.869823,15.907846 L97.7116582,15.907846 L97.7116582,13.4261874 C97.6856282,13.1346147 97.7901186,12.8464631 97.9971949,12.6387673 C98.2042711,12.4310714 98.4928179,12.3250097 98.785695,12.3489367 C99.3804938,12.3489367 99.6978386,12.6926642 99.6978386,13.3713623 L99.6978386,15.907846 L100.540517,15.907846 L100.540517,13.1644898 C100.59626,12.7511653 100.464089,12.3346067 100.180003,12.0282752 C99.895917,11.7219437 99.4895056,11.5577456 99.0714663,11.5804048 C98.5202338,11.5358442 98.0000988,11.8402421 97.7708264,12.3415764 L97.7042219,12.3415764 L97.7042219,10 Z M51.1779346,11.6587357 L50.3240687,11.6587357 L51.4998643,15.907846 L52.3648325,15.907846 L53.2427502,12.7783743 L53.3093547,12.7783743 L54.1909669,15.907846 L55.0642524,15.907846 L56.2354251,11.6587357 L55.39359,11.6587357 L54.6331656,14.9010564 L54.5665611,14.9010564 L53.6895717,11.6587357 L52.8819623,11.6587357 L52.004973,14.9010564 L51.9420629,14.9010564 L51.1779346,11.6587357 Z M88.5624282,11.5767152 C88.0194493,11.532749 87.5082608,11.8367595 87.2894968,12.3337442 L87.2265867,12.3337442 L87.2265867,11.6587357 L86.4162018,11.6587357 L86.4162018,15.907846 L87.258037,15.907846 L87.258037,13.4220543 C87.2278324,13.1392769 87.323106,12.8574611 87.5188798,12.6504903 C87.7146537,12.4435194 87.9914026,12.3320354 88.2765716,12.345266 C88.8991642,12.345266 89.197042,12.684851 89.197042,13.3676916 L89.197042,15.9077988 L90.0388772,15.9077988 L90.0388772,13.1571106 C90.1005871,12.7416517 89.9692941,12.3207827 89.6820687,12.0133358 C89.3948433,11.705889 88.9828549,11.5452279 88.5624282,11.5767152 Z M59.3705737,11.5767152 C58.8275947,11.532749 58.3164063,11.8367595 58.0976422,12.3337442 L58.0347321,12.3337442 L58.0347321,11.6587357 L57.2243472,11.6587357 L57.2243472,15.907846 L58.0661824,15.907846 L58.0661824,13.4220543 C58.0359779,13.1392769 58.1312514,12.8574611 58.3270252,12.6504903 C58.5227991,12.4435194 58.799548,12.3320354 59.0847171,12.345266 C59.7073096,12.345266 60.0051874,12.684851 60.0051874,13.3676916 L60.0051874,15.9077988 L60.8470226,15.9077988 L60.8470226,13.1571106 C60.9087325,12.7416517 60.7774395,12.3207827 60.4902141,12.0133358 C60.2029888,11.705889 59.7910004,11.5452279 59.3705737,11.5767152 Z M63.0302505,10 L62.1884153,10 L62.1884153,15.9078365 L63.0302505,15.9078365 L63.0302505,10 Z M71.8524258,13.9878751 L71.8524258,14.3431149 C71.8340119,14.6139289 71.7060535,14.8657042 71.4978431,15.0408041 C71.2896327,15.215904 71.0189989,15.2993351 70.7478955,15.2719982 C70.2899338,15.2719982 69.9569018,15.049452 69.9569018,14.6670261 C69.9569018,14.2924324 70.2233293,14.0933826 70.8107676,14.0542218 L71.8524258,13.9878751 Z M47.7060406,12.321779 C48.4350052,12.321779 48.8503859,12.8604043 48.8503859,13.7814555 C48.8503859,14.7061963 48.4350242,15.2443687 47.7060406,15.2443687 C46.9743193,15.2443687 46.5626521,14.7098953 46.5626521,13.7814649 C46.5626521,12.8604043 46.9742909,12.321779 47.7060406,12.321779 Z M83.2764305,12.321779 C84.0053951,12.321779 84.4207663,12.8604043 84.4207663,13.7814555 C84.4207663,14.7061963 84.0054046,15.2443687 83.2764305,15.2443687 C82.5447092,15.2443687 82.133042,14.7098953 82.133042,13.7814649 C82.133042,12.8604043 82.5446808,12.321779 83.2764305,12.321779 Z M66.2135028,12.321779 C66.9424674,12.321779 67.3578481,12.8604043 67.3578481,13.7814555 C67.3578481,14.7061963 66.9424769,15.2443687 66.2135028,15.2443687 C65.4817815,15.2443687 65.0701143,14.7098953 65.0701143,13.7814649 C65.0701143,12.8604043 65.4817531,12.321779 66.2135028,12.321779 Z M75.8063144,12.3415858 C76.5112366,12.3415858 76.9543541,12.899565 76.9543541,13.7851451 C76.9543541,14.6748771 76.5158405,15.2250148 75.8063144,15.2250148 C75.0930654,15.2250148 74.6665919,14.6826998 74.6665919,13.7814555 C74.6665635,12.8875809 75.0976598,12.3415858 75.8063144,12.3415858 Z M41.9436184,11.0731081 C42.4748873,11.0437388 42.991534,11.2524093 43.3522513,11.6420466 C43.7129686,12.031684 43.8800079,12.5615131 43.8076826,13.0866213 C43.8856828,13.6139177 43.7210148,14.1481553 43.3594009,14.5409963 C42.997787,14.9338372 42.4777257,15.1434585 41.9436184,15.1116562 L40.8779083,15.1116562 L40.8779083,11.0731081 L41.9436184,11.0731081 Z M27.4981685,9 C26.1627243,9.0525518 24.5602533,9.8671049 23.6121096,10.9706935 C22.8509344,11.8115218 22.1565158,13.151588 22.1565158,14.4916604 C22.1565158,14.7018675 22.1966071,14.8989331 22.2099709,14.9646278 C22.2900913,14.9777631 22.4236046,15.0040397 22.5704818,15.0040397 C23.7590489,15.0040397 25.2546719,14.2157648 26.1494227,13.151588 C26.9639908,12.1793827 27.5381977,10.8524517 27.5381977,9.51238 C27.5381977,9.3284483 27.5248339,9.1445173 27.4981685,9 Z M103.592426,12.290441 C103.882638,12.2838131 104.162165,12.399575 104.362122,12.6091991 C104.562079,12.8188232 104.66387,13.1028144 104.642411,13.391188 L102.487887,13.391188 C102.484062,13.0981843 102.599189,12.8160597 102.807151,12.608812 C103.015113,12.4015643 103.298283,12.2867598 103.592426,12.290441 Z"></path>
</svg>