<?xml version="1.0" encoding="UTF-8"?>
<svg width="128px" height="44px" viewBox="0 0 128 44" version="1.1" xmlns="http://www.w3.org/2000/svg" xmlns:xlink="http://www.w3.org/1999/xlink">
    <g transform="translate(1, 1)">
        <path fill="black" stroke="silver" stroke-width="0.75" d="M116.385431,0.375 C119.622427,0.375 120.80151,0.698783466 121.986322,1.33242759 C123.142227,1.95061231 124.049388,2.85777326 124.667572,4.01367818 C125.301217,5.19848968 125.625,6.37757318 125.625,9.6145695 L125.625,32.3854305 C125.625,35.6224268 125.301217,36.8015103 124.667572,37.9863218 C124.049388,39.1422267 123.142227,40.0493877 121.986322,40.6675724 C120.80151,41.3012165 119.622427,41.625 116.385431,41.625 L9.6145695,41.625 C6.37757318,41.625 5.19848968,41.3012165 4.01367818,40.6675724 C2.85777326,40.0493877 1.95061231,39.1422267 1.33242759,37.9863218 C0.698783466,36.8015103 0.375,35.6224268 0.375,32.3854305 L0.375,9.6145695 C0.375,6.37757318 0.698783466,5.19848968 1.33242759,4.01367818 C1.95061231,2.85777326 2.85777326,1.95061231 4.01367818,1.33242759 C5.19848968,0.698783466 6.37757318,0.375 9.6145695,0.375 L116.385431,0.375 Z"></path>
        <path fill="white" d="M116.886909,28.3462263 C116.613797,30.1349628 114.86523,31.3625309 112.628053,31.3625309 C109.750766,31.3625309 107.96487,29.4419968 107.96487,26.3608599 C107.96487,23.2701566 109.760369,21.2656573 112.542711,21.2656573 C115.279171,21.2656573 117,23.138359 117,26.125975 L117,26.818941 L110.014287,26.818941 L110.014287,26.9411613 C109.949065,27.6747349 110.203327,28.4008711 110.712396,28.9348642 C111.221466,29.4688574 111.936278,29.7592397 112.675007,29.7321474 C113.660226,29.8241115 114.589094,29.2605031 114.959126,28.3462154 L116.886909,28.3462263 Z M110.02387,25.405387 L114.968718,25.405387 C115.005561,24.7462111 114.76471,24.1016169 114.304191,23.6268935 C113.843672,23.15217 113.20524,22.8903601 112.542711,22.9045407 C111.874941,22.9005707 111.233245,23.1625034 110.760252,23.6321193 C110.287258,24.1017353 110.02216,24.7401224 110.02387,25.405387 L110.02387,25.405387 Z M102.468463,21.3868219 L104.404801,21.3868219 L104.404801,23.0639494 L104.451776,23.0639494 C104.721804,21.9843064 105.714795,21.2412585 106.83084,21.2837128 C107.064804,21.282899 107.298122,21.3082121 107.526426,21.3591781 L107.526426,23.2510128 C107.231061,23.161098 106.922944,23.1198152 106.614229,23.1287925 C106.017366,23.10467 105.439735,23.3416438 105.033005,23.7774915 C104.626275,24.2133392 104.431081,24.8045169 104.498675,25.3957988 L104.498675,31.2402997 L102.468463,31.2402997 L102.468463,21.3868219 Z M91.4117084,26.314105 C91.4117084,23.2138352 93.2445468,21.2656682 96.1026399,21.2656682 C98.9703248,21.2656682 100.794631,23.2137917 100.794631,26.314105 C100.794631,29.4228856 98.9799274,31.3625417 96.1026399,31.3625417 C93.2263684,31.3625417 91.4117084,29.4228747 91.4117084,26.314105 Z M98.7260089,26.314105 C98.7260089,24.1873854 97.7477078,22.9321844 96.102629,22.9321844 C94.4575502,22.9321844 93.4803197,24.1969519 93.4803197,26.314105 C93.4803197,28.4493245 94.4575502,29.6949698 96.102629,29.6949698 C97.7477078,29.6949698 98.7260089,28.4493245 98.7260089,26.314105 L98.7260089,26.314105 Z M88.4415626,19.0549725 L88.4415626,21.3868219 L90.3224142,21.3868219 L90.3224142,22.9885059 L88.4415626,22.9885059 L88.4415626,28.420625 C88.4415626,29.2645107 88.8181633,29.6577596 89.6449633,29.6577596 C89.868251,29.6538807 90.0911774,29.6382595 90.3128116,29.6109611 L90.3128116,31.2030786 C89.9410813,31.2722746 89.5632488,31.3036132 89.1851505,31.2966103 C87.1826872,31.2966103 86.4017483,30.5473119 86.4017483,28.6363443 L86.4017483,22.9885059 L84.9636454,22.9885059 L84.9636454,21.3868219 L86.4017265,21.3868219 L86.4017265,19.0549725 L88.4415626,19.0549725 Z M75.7300826,27.4747077 C75.8805131,28.8149404 77.1874127,29.6949154 78.9732976,29.6949154 C80.6845243,29.6949154 81.9156624,28.8148969 81.9156624,27.6064509 C81.9156624,26.5574354 81.1731341,25.9293234 79.4149756,25.4988643 L77.6568172,25.076916 C75.1657331,24.4774817 74.0092641,23.3168681 74.0092641,21.4335333 C74.0092641,19.101684 76.0490784,17.5 78.9455602,17.5 C81.8121526,17.5 83.7773087,19.101684 83.8434566,21.4335333 L81.7940179,21.4335333 C81.6713356,20.0848007 80.5522066,19.270681 78.9167304,19.270681 C77.2812543,19.270681 76.1621362,20.094378 76.1621362,21.2932467 C76.1621362,22.2487305 76.8769271,22.8109654 78.6254829,23.2413701 L80.1201311,23.6069861 C82.9035333,24.2627528 84.0600024,25.3766223 84.0600024,27.353456 C84.0600024,29.8819244 82.0383228,31.465542 78.8228452,31.465542 C75.8143324,31.465542 73.7830611,29.9191237 73.6518359,27.4746097 L75.7300826,27.4747077 Z M68.5352635,26.314105 C68.5352635,29.3761197 66.8901847,31.3434088 64.4076326,31.3434088 C63.1244232,31.4102812 61.91571,30.7406993 61.2956429,29.6194828 L61.2486675,29.6194828 L61.2486675,34.5 L59.2184559,34.5 L59.2184559,21.3868219 L61.1835793,21.3868219 L61.1835793,23.0257052 L61.2209192,23.0257052 C61.8685382,21.9115185 63.0785594,21.2422288 64.3702599,21.2837346 C66.880582,21.2837346 68.5352635,23.2605902 68.5352635,26.314105 Z M66.4485175,26.314105 C66.4485175,24.319183 65.4136602,23.0076388 63.8347293,23.0076388 C62.2835358,23.0076388 61.2401573,24.346805 61.2401573,26.314105 C61.2401573,28.2994713 62.2835358,29.629071 63.8347293,29.629071 C65.4136711,29.629071 66.4485175,28.3271042 66.4485175,26.314105 L66.4485175,26.314105 Z M57.6491604,26.314105 C57.6491604,29.3761197 56.0040816,31.3434088 53.5215296,31.3434088 C52.2383202,31.4102812 51.029607,30.7406993 50.4095399,29.6194828 L50.3625645,29.6194828 L50.3625645,34.5 L48.3323529,34.5 L48.3323529,21.3868219 L50.2975199,21.3868219 L50.2975199,23.0257052 L50.3348599,23.0257052 C50.9824742,21.9115178 52.1924907,21.2422242 53.4841896,21.2837237 C55.9944353,21.2837346 57.6491604,23.2605902 57.6491604,26.314105 Z M55.5624036,26.314105 C55.5624036,24.319183 54.5275572,23.0076388 52.9486263,23.0076388 C51.3974327,23.0076388 50.3540543,24.346805 50.3540543,26.314105 C50.3540543,28.2994713 51.3974327,29.629071 52.9486263,29.629071 C54.5275681,29.629071 55.5624036,28.3271042 55.5624036,26.314105 Z M43.6030545,27.5873723 L38.4320452,27.5873723 L37.1902339,31.2403215 L35,31.2403215 L39.8978964,17.7253511 L42.1734726,17.7253511 L47.071369,31.2403215 L44.8437843,31.2403215 L43.6030545,27.5873723 Z M38.9675976,25.9017232 L43.0664751,25.9017232 L41.0458662,19.973257 L40.9893209,19.973257 L38.9675976,25.9017232 Z"></path>
        <path fill="white" d="M112.19077,13.0539854 C111.915968,13.989071 111.009536,14.5932402 110.039078,14.4881666 C109.376935,14.5056161 108.740578,14.2316236 108.298849,13.7388857 C107.85712,13.2461479 107.654675,12.5844783 107.745227,11.9294336 C107.65708,11.2725686 107.858766,10.6098387 108.298036,10.1129381 C108.737305,9.61603745 109.370933,9.33386089 110.034766,9.3395121 C111.41646,9.3395121 112.25,10.2818862 112.25,11.838565 L112.25,12.1799444 L108.743532,12.1799444 L108.743532,12.2347695 C108.712502,12.6026258 108.838349,12.9664831 109.090123,13.2368574 C109.341896,13.5072318 109.696235,13.6590358 110.065996,13.6549361 C110.54545,13.7123974 111.012165,13.4749746 111.247383,13.0539524 L112.19077,13.0539854 Z M108.74351,11.456386 L111.251662,11.456386 C111.276643,11.1199502 111.158145,10.7886271 110.925371,10.5440656 C110.692596,10.2995041 110.367193,10.1644486 110.029351,10.1721811 C109.686932,10.1678864 109.357288,10.301825 109.115195,10.543614 C108.873102,10.785403 108.73908,11.1145483 108.743532,11.456386 L108.74351,11.456386 Z M102.203376,7.5 L103.174762,7.5 L103.174762,10.2318391 L103.252298,10.2318391 C103.519199,9.64694907 104.1247,9.29181822 104.766402,9.34380563 C105.25305,9.31736992 105.726163,9.50893436 106.056874,9.8663211 C106.387585,10.2237078 106.541448,10.7096929 106.476556,11.1919048 L106.476556,14.392487 L105.495575,14.392487 L105.495575,11.433256 C105.495575,10.6414416 105.126147,10.2404262 104.433729,10.2404262 C104.092784,10.2125113 103.756881,10.3362499 103.515818,10.5785618 C103.274756,10.8208736 103.153117,11.1570505 103.183419,11.4972186 L103.183419,14.392487 L102.20342,14.392487 L102.203376,7.5 Z M99.7889151,8.20097883 L99.7889151,9.45777125 L100.864767,9.45777125 L100.864767,10.2818422 L99.7889151,10.2818422 L99.7889151,12.8309092 C99.7889151,13.3501837 100.003228,13.5775645 100.491071,13.5775645 C100.615966,13.5771655 100.740736,13.5696266 100.864767,13.554985 L100.864767,14.3699074 C100.688775,14.401339 100.510464,14.418061 100.331688,14.4198995 C99.2418418,14.4198995 98.8078355,14.0371591 98.8078355,13.0813979 L98.8078355,10.2817982 L98.0195311,10.2817982 L98.0195311,9.45772721 L98.8078355,9.45772721 L98.8078355,8.20097883 L99.7889151,8.20097883 Z M90.0341281,9.4351917 L90.9775151,9.4351917 L90.9775151,10.2227016 L91.05075,10.2227016 C91.3054182,9.64288605 91.9005039,9.28820718 92.5325977,9.33950109 C93.0220258,9.30276586 93.5016306,9.49020378 93.835996,9.84889182 C94.1703614,10.2075799 94.3232025,10.6985937 94.2513647,11.1832957 L94.2513647,14.3924319 L93.2713657,14.3924319 L93.2713657,11.4289735 C93.2713657,10.6323261 92.9245995,10.2361437 92.1998258,10.2361437 C91.8678542,10.220708 91.5456846,10.3507726 91.3177799,10.5922386 C91.0898753,10.8337046 90.9789652,11.1624897 91.014127,11.4923966 L91.014127,14.392487 L90.0341281,14.392487 L90.0341281,9.4351917 Z M84.0356637,11.9116981 C83.9505156,11.0231417 84.377306,10.1632109 85.1370401,9.69255822 C85.8967742,9.22190557 86.8580962,9.22190557 87.6178303,9.69255822 C88.3775644,10.1632109 88.8043548,11.0231417 88.7192067,11.9116981 C88.8059748,12.8012093 88.379574,13.662808 87.6191663,14.1344738 C86.8587585,14.6061397 85.8961118,14.6061397 85.1357041,14.1344738 C84.3752964,13.662808 83.9488956,12.8012093 84.0356637,11.9116981 L84.0356637,11.9116981 Z M87.7111974,11.9116981 C87.7111974,10.8371384 87.2276546,10.2087421 86.3790507,10.2087421 C85.5272047,10.2087421 85.0480069,10.8371384 85.0480069,11.9117091 C85.0480069,12.9948779 85.5272378,13.6184301 86.3790507,13.6184301 C87.2276656,13.6184301 87.7111974,12.9905623 87.7111974,11.9116981 Z M75.3438039,11.9116981 C75.3438039,10.3452763 76.1504253,9.35295414 77.4050361,9.35295414 C78.0385521,9.32381335 78.6318986,9.66269674 78.9278077,10.2226686 L79.0010426,10.2226686 L79.0010426,7.5 L79.9810416,7.5 L79.9810416,14.392476 L79.0419665,14.392476 L79.0419665,13.6092596 L78.9644307,13.6092596 C78.6461537,14.1645854 78.0454971,14.4977406 77.4050472,14.4741741 C76.1418127,14.4742291 75.3438039,13.4818849 75.3438039,11.9116981 Z M76.3561471,11.9116981 C76.3561471,12.9631498 76.8526143,13.5958506 77.6829232,13.5958506 C78.5088983,13.5958506 79.0193817,12.9540233 79.0193817,11.9160026 C79.0193817,10.8828259 78.5035388,10.2318501 77.6829232,10.2318501 C76.8579628,10.2318501 76.356114,10.8688444 76.356114,11.9116981 L76.3561471,11.9116981 Z M69.888112,12.9905623 C69.888112,12.0982243 70.553656,11.5837937 71.7350319,11.5106827 L73.080114,11.4332781 L73.080114,11.0053896 C73.080114,10.4818105 72.7333479,10.1861626 72.0635031,10.1861626 C71.5164297,10.1861626 71.1373524,10.3866703 71.0285751,10.7371542 L70.0798066,10.7371542 C70.1799602,9.88567075 70.9822698,9.33952311 72.1087277,9.33952311 C73.3536562,9.33952311 74.0558122,9.95823136 74.0558122,11.0053896 L74.0558122,14.392498 L73.1124252,14.392498 L73.1124252,13.6958347 L73.0348894,13.6958347 C72.7144779,14.2045916 72.144682,14.5019314 71.5433483,14.4741741 C71.1217991,14.517948 70.7013734,14.3816548 70.3860083,14.0989886 C70.0706431,13.8163223 69.8897729,13.4136655 69.888112,12.9905623 L69.888112,12.9905623 Z M73.080114,12.5669674 L73.080114,12.1525209 L71.8674967,12.2299255 C71.1836467,12.275613 70.8734925,12.5078378 70.8734925,12.9448638 C70.8734925,13.3910273 71.2611825,13.6506646 71.7943058,13.6506646 C72.1099033,13.6825576 72.4249541,13.5852214 72.6673365,13.3809382 C72.9097188,13.1766549 73.0586779,12.8829171 73.080114,12.5669674 Z M64.1723318,11.9116981 C64.0872491,11.0230836 64.5141068,10.163131 65.2738973,9.69247107 C66.0336878,9.22181116 66.9950592,9.22181116 67.7548497,9.69247107 C68.5146402,10.163131 68.9414979,11.0230836 68.8564152,11.9116981 C68.9430731,12.8012411 68.5165942,13.6628155 67.7561487,14.1344606 C66.9957032,14.6061057 66.0330438,14.6061057 65.2725983,14.1344606 C64.5121528,13.6628155 64.0856739,12.8012411 64.1723318,11.9116981 L64.1723318,11.9116981 Z M67.8478765,11.9116981 C67.8478765,10.8371384 67.3643228,10.2087421 66.5157189,10.2087421 C65.6638729,10.2087421 65.184675,10.8371384 65.184675,11.9117091 C65.184675,12.9948779 65.663906,13.6184301 66.5157189,13.6184301 C67.3643338,13.6184301 67.8478765,12.9905623 67.8478765,11.9116981 L67.8478765,11.9116981 Z M61.8300254,7.5 L62.8100244,7.5 L62.8100244,14.392476 L61.8300254,14.392476 L61.8300254,7.5 Z M56.0512439,9.4351917 L56.9946309,9.4351917 L56.9946309,10.2227016 L57.0678659,10.2227016 C57.322534,9.64288605 57.9176198,9.28820718 58.5497136,9.33950109 C59.0391416,9.30276586 59.5187465,9.49020378 59.8531119,9.84889182 C60.1874773,10.2075799 60.3403184,10.6985937 60.2684805,11.1832957 L60.2684805,14.3924319 L59.2884816,14.3924319 L59.2884816,11.4289735 C59.2884816,10.6323261 58.9417154,10.2361437 58.2169416,10.2361437 C57.8849701,10.220708 57.5628005,10.3507726 57.3348958,10.5922386 C57.1069911,10.8337046 56.9960811,11.1624897 57.0312429,11.4923966 L57.0312429,14.392487 L56.0512439,14.392487 L56.0512439,9.4351917 Z M53.5366297,14.392487 L52.5200188,14.392487 L51.4937145,10.7414367 L51.4161787,10.7414367 L50.3941752,14.392487 L49.3872466,14.392487 L48.0184769,9.4351917 L49.0124811,9.4351917 L49.9020198,13.2178991 L49.9752548,13.2178991 L50.9961775,9.4351917 L51.9363334,9.4351917 L52.9572562,13.2178991 L53.034792,13.2178991 L53.9200188,9.4351917 L54.9000178,9.4351917 L53.5366297,14.392487 Z M42.6273854,11.9116981 C42.5422373,11.0231417 42.9690277,10.1632109 43.7287618,9.69255822 C44.4884959,9.22190557 45.4498179,9.22190557 46.209552,9.69255822 C46.9692861,10.1632109 47.3960765,11.0231417 47.3109284,11.9116981 C47.3976965,12.8012093 46.9712957,13.662808 46.210888,14.1344738 C45.4504803,14.6061397 44.4878335,14.6061397 43.7274258,14.1344738 C42.9670181,13.662808 42.5406173,12.8012093 42.6273854,11.9116981 Z M46.3029301,11.9116981 C46.3029301,10.8371384 45.8193763,10.2087421 44.9707725,10.2087421 C44.1189264,10.2087421 43.6397286,10.8371384 43.6397286,11.9117091 C43.6397286,12.9948779 44.1189595,13.6184301 44.9707725,13.6184301 C45.8193984,13.6184301 46.3029301,12.9905623 46.3029301,11.9116981 L46.3029301,11.9116981 Z M38.3767679,7.82366588 C39.2467948,7.76133728 40.098967,8.09178831 40.6987296,8.72406453 C41.2984923,9.35634075 41.5826272,10.2237968 41.4729281,11.0876712 C41.4729281,13.1862701 40.3367769,14.392586 38.3767679,14.392586 L36,14.392586 L36,7.82366588 L38.3767679,7.82366588 Z M37.0219925,13.4635989 L38.2626091,13.4635989 C38.8843753,13.5007016 39.4897903,13.2561434 39.910753,12.797829 C40.3317157,12.3395145 40.5234093,11.7162374 40.4326076,11.1010582 C40.5168031,10.4884319 40.3223489,9.87029796 39.9024299,9.41572108 C39.4825109,8.96114421 38.8810711,8.71769523 38.2626091,8.75195945 L37.0219925,8.75195945 L37.0219925,13.4635989 Z"></path>
        <path fill="white" d="M25.2868929,20.2631457 C25.3109502,18.39341 26.2898667,16.6663431 27.8806775,15.6870256 C26.8725477,14.2453182 25.2445306,13.3640151 23.487745,13.3089764 C21.6394632,13.1147146 19.8476347,14.4164322 18.9057841,14.4164322 C17.9457065,14.4164322 16.4955796,13.3282638 14.9340323,13.360435 C12.8794432,13.4269029 11.0104425,14.568257 10.0108431,16.3669091 C7.88215582,20.0573114 9.46996502,25.4809603 11.5090691,28.464003 C12.5292761,29.9247143 13.7216051,31.5563662 15.2817436,31.4985043 C16.8084328,31.4350986 17.3786216,30.5236902 19.221466,30.5236902 C21.0472061,30.5236902 21.5821626,31.4985043 23.1739562,31.4617151 C24.8121649,31.4350876 25.844314,29.9945123 26.8287273,28.5199693 C27.5617443,27.4791592 28.1257998,26.3288374 28.5,25.1116137 C26.5543056,24.2875837 25.2891639,22.3785284 25.2868929,20.2631457 L25.2868929,20.2631457 Z M22.2802818,11.3471256 C23.1735012,10.2734192 23.6135565,8.89335161 23.5069956,7.5 C22.142355,7.64352022 20.8818093,8.29659894 19.9765226,9.32911004 C19.0825936,10.347821 18.6297313,11.6805677 18.7176804,13.033807 C20.1006192,13.0480651 21.4136904,12.4264033 22.2802818,11.3471256 L22.2802818,11.3471256 Z"></path>
    </g>
</svg>