<?xml version="1.0" encoding="UTF-8"?>
<svg width="128px" height="44px" viewBox="0 0 128 44" xmlns="http://www.w3.org/2000/svg">
    <path stroke="gray" stroke-width="0.75" fill="black" d="M117.385431,1.375 C120.622427,1.375 121.80151,1.69878347 122.986322,2.33242759 C124.142227,2.95061231 125.049388,3.85777326 125.667572,5.01367818 C126.301217,6.19848968 126.625,7.37757318 126.625,10.6145695 L126.625,33.3854305 C126.625,36.6224268 126.301217,37.8015103 125.667572,38.9863218 C125.049388,40.1422267 124.142227,41.0493877 122.986322,41.6675724 C121.80151,42.3012165 120.622427,42.625 117.385431,42.625 L10.6145695,42.625 C7.37757318,42.625 6.19848968,42.3012165 5.01367818,41.6675724 C3.85777326,41.0493877 2.95061231,40.1422267 2.33242759,38.9863218 C1.69878347,37.8015103 1.375,36.6224268 1.375,33.3854305 L1.375,10.6145695 C1.375,7.37757318 1.69878347,6.19848968 2.33242759,5.01367818 C2.95061231,3.85777326 3.85777326,2.95061231 5.01367818,2.33242759 C6.19848968,1.69878347 7.37757318,1.375 10.6145695,1.375 Z"></path>
    <path fill="white" d="M117.886909,29.3462263 C117.613797,31.1349628 115.86523,32.3625309 113.628053,32.3625309 C110.750766,32.3625309 108.96487,30.4419968 108.96487,27.3608599 C108.96487,24.2701566 110.760369,22.2656573 113.542711,22.2656573 C116.279171,22.2656573 118,24.138359 118,27.125975 L118,27.818941 L111.014287,27.818941 L111.014287,27.9411613 C110.949065,28.6747349 111.203327,29.4008711 111.712396,29.9348642 C112.221466,30.4688574 112.936278,30.7592397 113.675007,30.7321474 C114.660226,30.8241115 115.589094,30.2605031 115.959126,29.3462154 L117.886909,29.3462263 Z M111.02387,26.405387 L115.968718,26.405387 C116.005561,25.7462111 115.76471,25.1016169 115.304191,24.6268935 C114.843672,24.15217 114.20524,23.8903601 113.542711,23.9045407 C112.874941,23.9005707 112.233245,24.1625034 111.760252,24.6321193 C111.287258,25.1017353 111.02216,25.7401224 111.02387,26.405387 L111.02387,26.405387 Z M103.468463,22.3868219 L105.404801,22.3868219 L105.404801,24.0639494 L105.451776,24.0639494 C105.721804,22.9843064 106.714795,22.2412585 107.83084,22.2837128 C108.064804,22.282899 108.298122,22.3082121 108.526426,22.3591781 L108.526426,24.2510128 C108.231061,24.161098 107.922944,24.1198152 107.614229,24.1287925 C107.017366,24.10467 106.439735,24.3416438 106.033005,24.7774915 C105.626275,25.2133392 105.431081,25.8045169 105.498675,26.3957988 L105.498675,32.2402997 L103.468463,32.2402997 L103.468463,22.3868219 Z M92.4117084,27.314105 C92.4117084,24.2138352 94.2445468,22.2656682 97.1026399,22.2656682 C99.9703248,22.2656682 101.794631,24.2137917 101.794631,27.314105 C101.794631,30.4228856 99.9799274,32.3625417 97.1026399,32.3625417 C94.2263684,32.3625417 92.4117084,30.4228747 92.4117084,27.314105 Z M99.7260089,27.314105 C99.7260089,25.1873854 98.7477078,23.9321844 97.102629,23.9321844 C95.4575502,23.9321844 94.4803197,25.1969519 94.4803197,27.314105 C94.4803197,29.4493245 95.4575502,30.6949698 97.102629,30.6949698 C98.7477078,30.6949698 99.7260089,29.4493245 99.7260089,27.314105 L99.7260089,27.314105 Z M89.4415626,20.0549725 L89.4415626,22.3868219 L91.3224142,22.3868219 L91.3224142,23.9885059 L89.4415626,23.9885059 L89.4415626,29.420625 C89.4415626,30.2645107 89.8181633,30.6577596 90.6449633,30.6577596 C90.868251,30.6538807 91.0911774,30.6382595 91.3128116,30.6109611 L91.3128116,32.2030786 C90.9410813,32.2722746 90.5632488,32.3036132 90.1851505,32.2966103 C88.1826872,32.2966103 87.4017483,31.5473119 87.4017483,29.6363443 L87.4017483,23.9885059 L85.9636454,23.9885059 L85.9636454,22.3868219 L87.4017265,22.3868219 L87.4017265,20.0549725 L89.4415626,20.0549725 Z M76.7300826,28.4747077 C76.8805131,29.8149404 78.1874127,30.6949154 79.9732976,30.6949154 C81.6845243,30.6949154 82.9156624,29.8148969 82.9156624,28.6064509 C82.9156624,27.5574354 82.1731341,26.9293234 80.4149756,26.4988643 L78.6568172,26.076916 C76.1657331,25.4774817 75.0092641,24.3168681 75.0092641,22.4335333 C75.0092641,20.101684 77.0490784,18.5 79.9455602,18.5 C82.8121526,18.5 84.7773087,20.101684 84.8434566,22.4335333 L82.7940179,22.4335333 C82.6713356,21.0848007 81.5522066,20.270681 79.9167304,20.270681 C78.2812543,20.270681 77.1621362,21.094378 77.1621362,22.2932467 C77.1621362,23.2487305 77.8769271,23.8109654 79.6254829,24.2413701 L81.1201311,24.6069861 C83.9035333,25.2627528 85.0600024,26.3766223 85.0600024,28.353456 C85.0600024,30.8819244 83.0383228,32.465542 79.8228452,32.465542 C76.8143324,32.465542 74.7830611,30.9191237 74.6518359,28.4746097 L76.7300826,28.4747077 Z M69.5352635,27.314105 C69.5352635,30.3761197 67.8901847,32.3434088 65.4076326,32.3434088 C64.1244232,32.4102812 62.91571,31.7406993 62.2956429,30.6194828 L62.2486675,30.6194828 L62.2486675,35.5 L60.2184559,35.5 L60.2184559,22.3868219 L62.1835793,22.3868219 L62.1835793,24.0257052 L62.2209192,24.0257052 C62.8685382,22.9115185 64.0785594,22.2422288 65.3702599,22.2837346 C67.880582,22.2837346 69.5352635,24.2605902 69.5352635,27.314105 Z M67.4485175,27.314105 C67.4485175,25.319183 66.4136602,24.0076388 64.8347293,24.0076388 C63.2835358,24.0076388 62.2401573,25.346805 62.2401573,27.314105 C62.2401573,29.2994713 63.2835358,30.629071 64.8347293,30.629071 C66.4136711,30.629071 67.4485175,29.3271042 67.4485175,27.314105 L67.4485175,27.314105 Z M58.6491604,27.314105 C58.6491604,30.3761197 57.0040816,32.3434088 54.5215296,32.3434088 C53.2383202,32.4102812 52.029607,31.7406993 51.4095399,30.6194828 L51.3625645,30.6194828 L51.3625645,35.5 L49.3323529,35.5 L49.3323529,22.3868219 L51.2975199,22.3868219 L51.2975199,24.0257052 L51.3348599,24.0257052 C51.9824742,22.9115178 53.1924907,22.2422242 54.4841896,22.2837237 C56.9944353,22.2837346 58.6491604,24.2605902 58.6491604,27.314105 Z M56.5624036,27.314105 C56.5624036,25.319183 55.5275572,24.0076388 53.9486263,24.0076388 C52.3974327,24.0076388 51.3540543,25.346805 51.3540543,27.314105 C51.3540543,29.2994713 52.3974327,30.629071 53.9486263,30.629071 C55.5275681,30.629071 56.5624036,29.3271042 56.5624036,27.314105 Z M44.6030545,28.5873723 L39.4320452,28.5873723 L38.1902339,32.2403215 L36,32.2403215 L40.8978964,18.7253511 L43.1734726,18.7253511 L48.071369,32.2403215 L45.8437843,32.2403215 L44.6030545,28.5873723 Z M39.9675976,26.9017232 L44.0664751,26.9017232 L42.0458662,20.973257 L41.9893209,20.973257 L39.9675976,26.9017232 Z"></path>
    <path fill="white" d="M113.19077,14.0539854 C112.915968,14.989071 112.009536,15.5932402 111.039078,15.4881666 C110.376935,15.5056161 109.740578,15.2316236 109.298849,14.7388857 C108.85712,14.2461479 108.654675,13.5844783 108.745227,12.9294336 C108.65708,12.2725686 108.858766,11.6098387 109.298036,11.1129381 C109.737305,10.6160375 110.370933,10.3338609 111.034766,10.3395121 C112.41646,10.3395121 113.25,11.2818862 113.25,12.838565 L113.25,13.1799444 L109.743532,13.1799444 L109.743532,13.2347695 C109.712502,13.6026258 109.838349,13.9664831 110.090123,14.2368574 C110.341896,14.5072318 110.696235,14.6590358 111.065996,14.6549361 C111.54545,14.7123974 112.012165,14.4749746 112.247383,14.0539524 L113.19077,14.0539854 Z M109.74351,12.456386 L112.251662,12.456386 C112.276643,12.1199502 112.158145,11.7886271 111.925371,11.5440656 C111.692596,11.2995041 111.367193,11.1644486 111.029351,11.1721811 C110.686932,11.1678864 110.357288,11.301825 110.115195,11.543614 C109.873102,11.785403 109.73908,12.1145483 109.743532,12.456386 L109.74351,12.456386 Z M103.203376,8.5 L104.174762,8.5 L104.174762,11.2318391 L104.252298,11.2318391 C104.519199,10.6469491 105.1247,10.2918182 105.766402,10.3438056 C106.25305,10.3173699 106.726163,10.5089344 107.056874,10.8663211 C107.387585,11.2237078 107.541448,11.7096929 107.476556,12.1919048 L107.476556,15.392487 L106.495575,15.392487 L106.495575,12.433256 C106.495575,11.6414416 106.126147,11.2404262 105.433729,11.2404262 C105.092784,11.2125113 104.756881,11.3362499 104.515818,11.5785618 C104.274756,11.8208736 104.153117,12.1570505 104.183419,12.4972186 L104.183419,15.392487 L103.20342,15.392487 L103.203376,8.5 Z M100.788915,9.20097883 L100.788915,10.4577712 L101.864767,10.4577712 L101.864767,11.2818422 L100.788915,11.2818422 L100.788915,13.8309092 C100.788915,14.3501837 101.003228,14.5775645 101.491071,14.5775645 C101.615966,14.5771655 101.740736,14.5696266 101.864767,14.554985 L101.864767,15.3699074 C101.688775,15.401339 101.510464,15.418061 101.331688,15.4198995 C100.241842,15.4198995 99.8078355,15.0371591 99.8078355,14.0813979 L99.8078355,11.2817982 L99.0195311,11.2817982 L99.0195311,10.4577272 L99.8078355,10.4577272 L99.8078355,9.20097883 L100.788915,9.20097883 Z M91.0341281,10.4351917 L91.9775151,10.4351917 L91.9775151,11.2227016 L92.05075,11.2227016 C92.3054182,10.642886 92.9005039,10.2882072 93.5325977,10.3395011 C94.0220258,10.3027659 94.5016306,10.4902038 94.835996,10.8488918 C95.1703614,11.2075799 95.3232025,11.6985937 95.2513647,12.1832957 L95.2513647,15.3924319 L94.2713657,15.3924319 L94.2713657,12.4289735 C94.2713657,11.6323261 93.9245995,11.2361437 93.1998258,11.2361437 C92.8678542,11.220708 92.5456846,11.3507726 92.3177799,11.5922386 C92.0898753,11.8337046 91.9789652,12.1624897 92.014127,12.4923966 L92.014127,15.392487 L91.0341281,15.392487 L91.0341281,10.4351917 Z M85.0356637,12.9116981 C84.9505156,12.0231417 85.377306,11.1632109 86.1370401,10.6925582 C86.8967742,10.2219056 87.8580962,10.2219056 88.6178303,10.6925582 C89.3775644,11.1632109 89.8043548,12.0231417 89.7192067,12.9116981 C89.8059748,13.8012093 89.379574,14.662808 88.6191663,15.1344738 C87.8587585,15.6061397 86.8961118,15.6061397 86.1357041,15.1344738 C85.3752964,14.662808 84.9488956,13.8012093 85.0356637,12.9116981 L85.0356637,12.9116981 Z M88.7111974,12.9116981 C88.7111974,11.8371384 88.2276546,11.2087421 87.3790507,11.2087421 C86.5272047,11.2087421 86.0480069,11.8371384 86.0480069,12.9117091 C86.0480069,13.9948779 86.5272378,14.6184301 87.3790507,14.6184301 C88.2276656,14.6184301 88.7111974,13.9905623 88.7111974,12.9116981 Z M76.3438039,12.9116981 C76.3438039,11.3452763 77.1504253,10.3529541 78.4050361,10.3529541 C79.0385521,10.3238134 79.6318986,10.6626967 79.9278077,11.2226686 L80.0010426,11.2226686 L80.0010426,8.5 L80.9810416,8.5 L80.9810416,15.392476 L80.0419665,15.392476 L80.0419665,14.6092596 L79.9644307,14.6092596 C79.6461537,15.1645854 79.0454971,15.4977406 78.4050472,15.4741741 C77.1418127,15.4742291 76.3438039,14.4818849 76.3438039,12.9116981 Z M77.3561471,12.9116981 C77.3561471,13.9631498 77.8526143,14.5958506 78.6829232,14.5958506 C79.5088983,14.5958506 80.0193817,13.9540233 80.0193817,12.9160026 C80.0193817,11.8828259 79.5035388,11.2318501 78.6829232,11.2318501 C77.8579628,11.2318501 77.356114,11.8688444 77.356114,12.9116981 L77.3561471,12.9116981 Z M70.888112,13.9905623 C70.888112,13.0982243 71.553656,12.5837937 72.7350319,12.5106827 L74.080114,12.4332781 L74.080114,12.0053896 C74.080114,11.4818105 73.7333479,11.1861626 73.0635031,11.1861626 C72.5164297,11.1861626 72.1373524,11.3866703 72.0285751,11.7371542 L71.0798066,11.7371542 C71.1799602,10.8856708 71.9822698,10.3395231 73.1087277,10.3395231 C74.3536562,10.3395231 75.0558122,10.9582314 75.0558122,12.0053896 L75.0558122,15.392498 L74.1124252,15.392498 L74.1124252,14.6958347 L74.0348894,14.6958347 C73.7144779,15.2045916 73.144682,15.5019314 72.5433483,15.4741741 C72.1217991,15.517948 71.7013734,15.3816548 71.3860083,15.0989886 C71.0706431,14.8163223 70.8897729,14.4136655 70.888112,13.9905623 L70.888112,13.9905623 Z M74.080114,13.5669674 L74.080114,13.1525209 L72.8674967,13.2299255 C72.1836467,13.275613 71.8734925,13.5078378 71.8734925,13.9448638 C71.8734925,14.3910273 72.2611825,14.6506646 72.7943058,14.6506646 C73.1099033,14.6825576 73.4249541,14.5852214 73.6673365,14.3809382 C73.9097188,14.1766549 74.0586779,13.8829171 74.080114,13.5669674 Z M65.1723318,12.9116981 C65.0872491,12.0230836 65.5141068,11.163131 66.2738973,10.6924711 C67.0336878,10.2218112 67.9950592,10.2218112 68.7548497,10.6924711 C69.5146402,11.163131 69.9414979,12.0230836 69.8564152,12.9116981 C69.9430731,13.8012411 69.5165942,14.6628155 68.7561487,15.1344606 C67.9957032,15.6061057 67.0330438,15.6061057 66.2725983,15.1344606 C65.5121528,14.6628155 65.0856739,13.8012411 65.1723318,12.9116981 L65.1723318,12.9116981 Z M68.8478765,12.9116981 C68.8478765,11.8371384 68.3643228,11.2087421 67.5157189,11.2087421 C66.6638729,11.2087421 66.184675,11.8371384 66.184675,12.9117091 C66.184675,13.9948779 66.663906,14.6184301 67.5157189,14.6184301 C68.3643338,14.6184301 68.8478765,13.9905623 68.8478765,12.9116981 L68.8478765,12.9116981 Z M62.8300254,8.5 L63.8100244,8.5 L63.8100244,15.392476 L62.8300254,15.392476 L62.8300254,8.5 Z M57.0512439,10.4351917 L57.9946309,10.4351917 L57.9946309,11.2227016 L58.0678659,11.2227016 C58.322534,10.642886 58.9176198,10.2882072 59.5497136,10.3395011 C60.0391416,10.3027659 60.5187465,10.4902038 60.8531119,10.8488918 C61.1874773,11.2075799 61.3403184,11.6985937 61.2684805,12.1832957 L61.2684805,15.3924319 L60.2884816,15.3924319 L60.2884816,12.4289735 C60.2884816,11.6323261 59.9417154,11.2361437 59.2169416,11.2361437 C58.8849701,11.220708 58.5628005,11.3507726 58.3348958,11.5922386 C58.1069911,11.8337046 57.9960811,12.1624897 58.0312429,12.4923966 L58.0312429,15.392487 L57.0512439,15.392487 L57.0512439,10.4351917 Z M54.5366297,15.392487 L53.5200188,15.392487 L52.4937145,11.7414367 L52.4161787,11.7414367 L51.3941752,15.392487 L50.3872466,15.392487 L49.0184769,10.4351917 L50.0124811,10.4351917 L50.9020198,14.2178991 L50.9752548,14.2178991 L51.9961775,10.4351917 L52.9363334,10.4351917 L53.9572562,14.2178991 L54.034792,14.2178991 L54.9200188,10.4351917 L55.9000178,10.4351917 L54.5366297,15.392487 Z M43.6273854,12.9116981 C43.5422373,12.0231417 43.9690277,11.1632109 44.7287618,10.6925582 C45.4884959,10.2219056 46.4498179,10.2219056 47.209552,10.6925582 C47.9692861,11.1632109 48.3960765,12.0231417 48.3109284,12.9116981 C48.3976965,13.8012093 47.9712957,14.662808 47.210888,15.1344738 C46.4504803,15.6061397 45.4878335,15.6061397 44.7274258,15.1344738 C43.9670181,14.662808 43.5406173,13.8012093 43.6273854,12.9116981 Z M47.3029301,12.9116981 C47.3029301,11.8371384 46.8193763,11.2087421 45.9707725,11.2087421 C45.1189264,11.2087421 44.6397286,11.8371384 44.6397286,12.9117091 C44.6397286,13.9948779 45.1189595,14.6184301 45.9707725,14.6184301 C46.8193984,14.6184301 47.3029301,13.9905623 47.3029301,12.9116981 L47.3029301,12.9116981 Z M39.3767679,8.82366588 C40.2467948,8.76133728 41.098967,9.09178831 41.6987296,9.72406453 C42.2984923,10.3563408 42.5826272,11.2237968 42.4729281,12.0876712 C42.4729281,14.1862701 41.3367769,15.392586 39.3767679,15.392586 L37,15.392586 L37,8.82366588 L39.3767679,8.82366588 Z M38.0219925,14.4635989 L39.2626091,14.4635989 C39.8843753,14.5007016 40.4897903,14.2561434 40.910753,13.797829 C41.3317157,13.3395145 41.5234093,12.7162374 41.4326076,12.1010582 C41.5168031,11.4884319 41.3223489,10.870298 40.9024299,10.4157211 C40.4825109,9.96114421 39.8810711,9.71769523 39.2626091,9.75195945 L38.0219925,9.75195945 L38.0219925,14.4635989 Z"></path>
    <path fill="white" d="M26.2868929,21.2631457 C26.3109502,19.39341 27.2898667,17.6663431 28.8806775,16.6870256 C27.8725477,15.2453182 26.2445306,14.3640151 24.487745,14.3089764 C22.6394632,14.1147146 20.8476347,15.4164322 19.9057841,15.4164322 C18.9457065,15.4164322 17.4955796,14.3282638 15.9340323,14.360435 C13.8794432,14.4269029 12.0104425,15.568257 11.0108431,17.3669091 C8.88215582,21.0573114 10.469965,26.4809603 12.5090691,29.464003 C13.5292761,30.9247143 14.7216051,32.5563662 16.2817436,32.4985043 C17.8084328,32.4350986 18.3786216,31.5236902 20.221466,31.5236902 C22.0472061,31.5236902 22.5821626,32.4985043 24.1739562,32.4617151 C25.8121649,32.4350876 26.844314,30.9945123 27.8287273,29.5199693 C28.5617443,28.4791592 29.1257998,27.3288374 29.5,26.1116137 C27.5543056,25.2875837 26.2891639,23.3785284 26.2868929,21.2631457 L26.2868929,21.2631457 Z M23.2802818,12.3471256 C24.1735012,11.2734192 24.6135565,9.89335161 24.5069956,8.5 C23.142355,8.64352022 21.8818093,9.29659894 20.9765226,10.32911 C20.0825936,11.347821 19.6297313,12.6805677 19.7176804,14.033807 C21.1006192,14.0480651 22.4136904,13.4264033 23.2802818,12.3471256 L23.2802818,12.3471256 Z"></path>
</svg>